<?xml version="1.0" standalone="no"?>
<!DOCTYPE svg PUBLIC "-//W3C//DTD SVG 20010904//EN"
 "http://www.w3.org/TR/2001/REC-SVG-20010904/DTD/svg10.dtd">
<svg version="1.0" xmlns="http://www.w3.org/2000/svg"
 width="1030.000000pt" height="515.000000pt" viewBox="0 0 1030.000000 515.000000"
 preserveAspectRatio="xMidYMid meet">

<g transform="translate(0.000000,515.000000) scale(0.100000,-0.100000)"
fill="#000000" stroke="none">
<path d="M5992 4325 c-32 -23 -52 -68 -52 -115 0 -56 42 -100 94 -100 22 0 35
-5 34 -11 -6 -24 22 -19 56 11 55 49 61 140 12 196 -29 34 -108 44 -144 19z"/>
<path d="M5911 4053 c-17 -14 -34 -61 -72 -203 -58 -213 -65 -284 -33 -327 21
-27 25 -28 95 -25 41 2 102 10 137 18 35 8 77 14 94 14 l31 0 -4 -172 -4 -173
29 -3 c37 -5 46 5 55 64 l9 49 1 -45 c2 -35 4 -40 11 -24 14 34 50 277 53 352
2 62 -1 73 -22 96 -13 13 -54 98 -92 187 -38 89 -74 168 -79 175 -6 6 -36 15
-68 18 -31 4 -71 9 -87 12 -21 4 -38 0 -54 -13z m189 -345 c0 -4 -9 -8 -20 -8
-21 0 -24 8 -13 36 6 16 7 16 20 -2 7 -10 13 -21 13 -26z"/>
<path d="M4743 3529 c-51 -25 -55 -30 -81 -99 -22 -61 -113 -469 -132 -590
-19 -128 -14 -120 -68 -120 -144 0 -178 -38 -287 -315 -110 -278 -153 -560
-109 -715 41 -148 194 -245 351 -223 98 13 139 71 199 280 22 73 41 133 44
133 3 0 21 -24 40 -52 57 -85 147 -175 203 -202 76 -39 120 -35 223 19 77 41
90 44 123 36 20 -5 79 -14 131 -21 102 -13 146 -4 194 38 28 25 145 185 196
270 25 39 47 72 50 72 3 0 18 -25 33 -55 42 -78 143 -181 187 -188 19 -3 58
-10 85 -14 28 -5 56 -12 62 -16 29 -18 123 98 123 150 -1 46 -15 46 -86 4 -37
-23 -80 -41 -95 -41 -27 0 -27 2 -35 77 -8 89 -2 207 27 563 24 283 22 305
-31 379 -35 48 -84 81 -120 81 -19 0 -32 -11 -51 -43 -47 -74 -77 -142 -101
-223 -20 -72 -22 -102 -24 -332 l-1 -254 -79 -80 c-94 -95 -226 -197 -308
-238 -52 -26 -61 -28 -69 -15 -14 25 -11 87 7 129 21 49 20 53 -4 31 -19 -18
-20 -17 -20 3 0 12 30 59 66 105 47 59 89 129 149 252 88 181 110 239 120 322
8 63 -17 129 -61 160 -49 34 -167 90 -228 108 -56 16 -59 16 -85 -2 -51 -38
-180 -327 -230 -517 -66 -253 -48 -457 53 -586 l45 -58 -37 -26 c-89 -61 -141
-23 -220 161 -58 136 -65 162 -87 299 l-16 101 55 189 c98 342 101 359 101
674 0 282 -8 362 -42 395 -22 22 -110 19 -160 -6z m64 -461 c-3 -40 -13 -93
-21 -118 l-16 -45 5 60 c6 72 26 175 33 175 3 0 2 -33 -1 -72z m640 -435 c-8
-85 -44 -214 -88 -318 -41 -98 -48 -78 -20 62 28 134 90 323 108 323 3 0 3
-30 0 -67z m-913 -318 c24 -137 23 -152 -27 -340 -66 -253 -123 -385 -164
-385 -27 0 -53 80 -53 162 0 193 119 601 191 651 13 9 26 13 30 9 4 -4 15 -47
23 -97z"/>
<path d="M9065 3501 c-57 -27 -86 -56 -146 -141 -29 -41 -56 -79 -60 -84 -4
-5 -15 17 -25 49 -18 63 -51 105 -83 105 -11 0 -23 5 -26 10 -3 6 -20 10 -36
10 -16 0 -41 7 -54 16 -21 14 -30 14 -55 4 -17 -7 -32 -16 -35 -20 -2 -3 2
-31 10 -61 12 -42 15 -135 15 -436 l0 -382 -97 -88 c-54 -48 -120 -105 -148
-124 -54 -40 -184 -114 -189 -108 -2 2 -8 38 -15 78 -11 68 -10 77 7 100 34
47 37 55 19 48 -9 -3 13 32 49 79 69 91 210 366 240 469 43 149 17 212 -120
288 -158 88 -219 98 -260 44 -36 -48 -119 -225 -161 -347 -98 -282 -113 -491
-49 -645 14 -33 26 -66 27 -73 2 -16 -158 -101 -190 -102 -76 -1 -104 265 -62
584 17 129 19 167 9 203 -15 61 -66 160 -87 172 -10 5 -57 17 -105 27 -85 18
-88 18 -109 -2 -31 -28 -146 -268 -163 -343 -20 -87 -99 -311 -109 -311 -5 0
-6 17 -3 38 3 20 7 141 8 267 3 228 3 230 -22 280 -24 48 -27 50 -75 57 -27 3
-68 9 -90 13 -30 5 -44 3 -52 -7 -9 -10 -166 -559 -190 -663 -14 -61 -117
-355 -124 -355 -24 0 12 458 46 585 21 79 29 124 52 287 4 30 1 38 -17 48 -33
18 -202 33 -211 19 -7 -13 -51 -278 -71 -429 -6 -52 -12 -169 -11 -260 0 -325
52 -465 200 -535 63 -30 78 -2 137 271 59 269 145 626 164 679 17 50 17 49 22
-295 6 -401 3 -387 106 -486 53 -52 72 -64 98 -64 47 0 64 24 140 193 94 210
106 241 116 320 12 99 26 104 39 15 28 -178 63 -258 158 -358 80 -85 135 -114
203 -108 44 4 60 14 145 84 53 43 102 83 109 88 9 6 25 0 50 -19 31 -23 57
-31 159 -47 131 -20 162 -18 202 14 29 23 107 118 180 222 l48 68 23 -61 c22
-62 31 -76 88 -138 27 -29 36 -33 83 -33 29 0 53 5 53 10 0 6 11 10 23 10 13
0 31 8 39 18 14 15 14 26 -8 107 -12 50 -23 107 -23 129 -1 47 79 366 126 501
19 55 53 135 76 179 43 81 164 224 177 209 4 -4 18 -53 30 -108 22 -99 44
-145 54 -114 16 46 76 289 76 307 0 40 -39 53 -167 58 -103 4 -123 3 -158 -15z
m-825 -426 c-7 -43 -23 -111 -36 -152 -25 -78 -79 -203 -88 -203 -15 0 44 250
86 368 38 104 55 98 38 -13z"/>
<path d="M3780 3497 c0 -2 -18 -86 -40 -186 -56 -254 -107 -528 -119 -643 -14
-123 -14 -487 -1 -638 14 -153 51 -293 109 -415 71 -149 146 -215 243 -215 48
0 84 15 58 24 -8 3 -24 6 -35 8 -23 4 -61 57 -75 107 -17 59 -24 327 -11 416
17 115 59 752 67 1010 10 333 -13 469 -88 515 -27 16 -108 29 -108 17z"/>
<path d="M5880 3454 c-69 -8 -130 -16 -137 -19 -15 -5 -7 -66 18 -120 9 -23
21 -53 24 -68 4 -15 12 -27 17 -27 21 0 108 99 114 129 8 41 27 56 44 36 30
-36 -74 -185 -130 -185 -21 0 -27 -14 -11 -25 5 -3 17 -28 26 -56 17 -51 17
-51 53 -44 20 4 66 10 104 14 37 4 70 9 73 12 4 5 34 284 35 329 0 13 1 13 10
0 9 -13 10 -13 10 0 0 44 -39 47 -250 24z"/>
<path d="M2276 2980 c-183 -92 -421 -406 -632 -833 -101 -205 -122 -284 -131
-493 -5 -126 -4 -149 15 -210 33 -108 129 -241 200 -278 18 -9 62 -16 116 -17
87 -2 87 -1 123 32 50 48 171 210 210 283 20 38 33 54 33 41 9 -221 21 -372
35 -425 41 -159 148 -303 232 -314 15 -2 33 -5 38 -6 6 -2 17 0 26 4 9 4 34 0
54 -9 21 -8 40 -14 42 -12 1 2 -9 37 -23 78 -19 54 -26 94 -26 149 0 41 2 356
4 700 l4 625 -31 31 c-53 54 -175 53 -212 -2 -19 -29 -78 -308 -97 -463 -9
-67 -23 -137 -31 -155 -22 -45 -195 -274 -243 -319 -59 -58 -73 -50 -94 53
-21 106 -22 184 -3 291 52 298 146 519 356 834 124 186 160 228 182 206 10
-10 0 -45 -34 -128 -25 -60 11 -56 83 9 53 50 73 103 66 185 -11 129 -143 202
-262 143z"/>
<path d="M3035 2561 c-55 -14 -70 -29 -122 -123 -160 -289 -247 -649 -213
-873 17 -111 43 -176 96 -234 63 -70 138 -105 225 -105 61 0 78 5 164 48 58
29 113 64 136 89 72 73 167 304 190 461 15 100 0 193 -46 297 -19 42 -35 84
-35 92 0 15 -108 159 -165 221 -25 27 -30 28 -86 23 -32 -4 -59 -3 -59 1 1 4
7 18 15 32 21 37 18 55 -10 68 -28 13 -45 14 -90 3z m97 -310 c18 -39 46 -169
68 -313 21 -142 -56 -401 -157 -525 -19 -24 -38 -43 -43 -43 -34 0 -61 214
-41 325 6 33 15 101 21 150 5 50 15 133 21 185 11 91 48 240 71 283 10 20 11
20 25 1 9 -10 24 -39 35 -63z"/>
</g>
</svg>
