<?xml version="1.0" standalone="no"?>
<!DOCTYPE svg PUBLIC "-//W3C//DTD SVG 20010904//EN"
 "http://www.w3.org/TR/2001/REC-SVG-20010904/DTD/svg10.dtd">
<svg version="1.0" xmlns="http://www.w3.org/2000/svg"
 width="1500.000000pt" height="1500.000000pt" viewBox="0 0 1500.000000 1500.000000"
 preserveAspectRatio="xMidYMid meet">

<g transform="translate(0.000000,1500.000000) scale(0.100000,-0.100000)"
fill="#000000" stroke="none">
<path d="M10428 13250 c-68 -20 -100 -50 -171 -160 -27 -42 -35 -158 -39 -520
-3 -291 -1 -328 14 -356 22 -40 68 -59 138 -58 99 2 124 27 164 164 9 30 25
75 35 100 10 25 27 65 36 90 9 25 32 79 50 120 158 357 171 451 70 506 -20 10
-43 29 -51 42 -8 13 -36 36 -62 53 -37 24 -56 29 -101 28 -31 0 -68 -4 -83 -9z"/>
<path d="M5531 12119 c-2096 -105 -3155 -162 -3174 -170 -41 -17 -67 -64 -67
-121 l0 -48 -39 0 c-98 0 -274 -31 -364 -65 -50 -19 -114 -39 -142 -46 -54
-13 -199 -82 -261 -124 -130 -89 -322 -281 -408 -409 -113 -169 -192 -399
-236 -691 -39 -260 -45 -348 -45 -660 0 -437 37 -828 96 -1022 10 -34 19 -69
19 -77 0 -68 187 -506 265 -620 24 -36 26 -43 16 -82 -6 -24 -11 -52 -11 -62
0 -28 61 -113 134 -186 93 -94 156 -175 156 -201 0 -13 4 -124 10 -247 5 -123
19 -457 30 -743 26 -660 47 -1197 65 -1635 11 -266 11 -346 2 -352 -7 -4 -28
-8 -47 -8 -19 0 -89 -9 -155 -20 -296 -47 -515 -86 -544 -95 -9 -3 -66 -16
-126 -29 -317 -69 -410 -154 -385 -350 5 -44 14 -93 20 -110 5 -17 21 -69 36
-116 27 -87 75 -222 98 -275 7 -16 23 -51 34 -78 12 -26 22 -54 22 -61 0 -8
11 -37 25 -64 14 -28 25 -55 25 -61 0 -6 26 -68 59 -138 134 -292 171 -374
171 -383 0 -6 22 -55 49 -109 28 -54 59 -125 70 -156 11 -32 27 -65 36 -75 8
-9 15 -21 15 -25 0 -19 74 -181 91 -200 10 -11 28 -42 40 -69 43 -99 155 -218
264 -281 82 -48 189 -54 1150 -66 369 -5 690 -10 715 -11 41 -2 98 9 390 72
52 11 138 29 190 40 52 11 138 29 190 40 52 11 138 29 190 40 97 20 162 34
330 70 52 11 138 29 190 40 52 11 138 29 190 40 52 11 138 29 190 40 52 11
138 29 190 40 52 11 138 29 190 40 52 11 138 29 190 40 52 11 138 29 190 40
52 11 138 29 190 40 52 11 138 29 190 40 52 11 138 29 190 40 168 36 233 50
330 70 52 11 138 29 190 40 52 11 138 29 190 40 52 11 138 29 190 40 52 11
138 29 190 40 52 11 138 29 190 40 52 11 138 29 190 40 52 11 138 29 190 40
52 11 138 29 190 40 97 20 162 34 330 70 52 11 138 29 190 40 52 11 138 29
190 40 52 11 138 29 190 40 52 11 138 29 190 40 52 12 113 24 135 27 88 11
125 45 149 139 l11 44 50 -36 c74 -54 200 -107 340 -144 39 -10 95 -25 125
-33 70 -18 230 -52 340 -72 81 -14 173 -24 445 -45 265 -21 368 -30 436 -41
39 -6 136 -14 217 -17 133 -6 147 -9 150 -26 4 -20 -20 -110 -44 -164 -28 -65
-9 -139 44 -166 15 -7 74 -23 132 -35 58 -12 130 -31 161 -42 67 -23 81 -23
119 -4 55 28 76 105 45 164 -17 34 -56 52 -110 50 -22 -1 -70 6 -107 15 -66
17 -68 19 -62 44 4 15 11 35 15 44 5 9 9 28 9 42 0 14 5 28 11 32 6 3 83 11
172 16 153 9 254 27 365 64 91 30 117 50 152 115 29 56 32 67 28 124 -7 78
-53 169 -119 235 -51 51 -190 124 -294 154 -33 10 -85 27 -116 37 -30 10 -65
19 -77 19 -28 0 -37 22 -52 130 -11 83 -22 126 -61 240 -38 114 -67 187 -103
258 -25 50 -33 73 -24 76 7 1 36 10 63 18 50 16 171 52 277 83 82 24 305 136
366 184 28 23 53 41 55 41 3 0 7 -20 10 -45 4 -24 31 -94 62 -155 56 -112 135
-208 227 -277 20 -15 71 -57 113 -92 111 -92 213 -126 354 -118 142 8 190 27
214 84 15 36 49 147 63 205 5 24 10 26 35 21 58 -11 119 38 119 97 0 35 -27
76 -60 90 -16 7 -30 18 -30 24 0 11 9 44 86 331 84 311 77 290 102 287 55 -8
112 42 112 98 0 33 -26 75 -54 88 -30 14 -30 11 -10 82 8 30 31 111 49 180 91
337 108 402 132 493 l25 97 35 0 c64 0 113 44 113 101 0 34 -28 76 -60 89 -35
14 -35 15 -16 72 8 24 29 97 46 163 29 113 52 197 135 505 61 224 54 207 81
202 54 -10 114 41 114 98 0 28 -46 116 -64 123 -15 6 -18 -5 70 322 20 72 47
175 62 230 25 93 29 100 50 97 55 -8 112 42 112 98 0 29 -25 75 -54 98 -25 19
-25 19 -10 73 20 69 80 295 102 377 16 63 16 64 -8 109 -17 31 -35 50 -59 60
-102 43 -177 80 -199 98 -14 11 -40 29 -58 40 -85 53 -114 78 -173 148 -93
109 -116 185 -109 352 4 80 9 107 26 135 12 19 22 45 22 58 0 28 -27 82 -40
82 -6 0 -10 8 -10 18 0 22 -60 149 -92 194 -84 119 -243 266 -454 416 -50 36
-318 170 -534 267 -58 26 -179 82 -270 125 -91 43 -185 86 -210 95 -25 9 -74
30 -110 45 -86 37 -137 57 -180 69 -19 5 -78 23 -130 40 -108 34 -353 96 -420
106 -25 4 -79 15 -120 25 -41 10 -106 21 -145 25 -38 4 -108 13 -155 20 -155
25 -557 49 -810 49 l-245 -1 -155 -41 c-190 -50 -212 -58 -353 -128 -201 -101
-217 -122 -282 -379 -20 -77 -42 -156 -51 -175 -8 -19 -18 -55 -23 -80 -5 -25
-22 -88 -36 -140 -15 -52 -30 -111 -35 -130 -5 -19 -20 -66 -33 -105 -14 -38
-32 -111 -41 -161 -9 -51 -27 -123 -40 -160 -23 -65 -51 -167 -81 -294 -7 -30
-19 -77 -27 -104 l-14 -49 -79 87 c-44 48 -91 105 -105 126 -14 20 -47 71 -74
111 -27 41 -56 85 -66 99 -9 14 -51 90 -94 170 -42 80 -81 152 -85 160 -20 34
-81 180 -81 193 0 8 -9 26 -21 41 l-21 26 21 33 c11 17 36 62 55 99 20 37 42
70 50 75 19 11 106 159 106 181 0 9 11 35 25 57 13 22 40 69 60 105 20 36 54
94 75 130 21 36 55 94 75 130 20 36 56 99 80 140 24 41 54 94 66 118 13 23 26
42 31 42 12 0 38 56 38 81 0 42 -187 352 -336 556 -77 106 -107 124 -207 122
-34 -1 -1477 -73 -3206 -160z m3247 -81 c18 -24 70 -99 115 -168 46 -69 95
-143 110 -164 40 -58 54 -111 35 -133 -9 -10 -30 -45 -48 -78 -17 -33 -51 -94
-75 -135 -24 -41 -58 -100 -75 -130 -17 -30 -51 -89 -75 -130 -24 -41 -60
-104 -80 -140 -20 -36 -56 -99 -80 -140 -24 -41 -60 -104 -80 -140 -20 -36
-54 -94 -75 -130 -21 -36 -55 -94 -75 -130 -20 -36 -56 -99 -80 -140 -24 -41
-60 -104 -80 -140 -20 -36 -56 -99 -80 -140 -24 -41 -58 -100 -75 -130 -17
-30 -51 -89 -75 -130 -24 -41 -60 -104 -80 -140 -20 -36 -56 -99 -80 -140 -24
-41 -60 -104 -80 -140 -20 -36 -54 -94 -75 -130 -21 -36 -55 -94 -75 -130
-130 -233 -122 -223 -178 -235 -38 -8 -65 -37 -73 -80 -10 -56 11 -92 75 -126
31 -17 81 -45 111 -64 30 -19 78 -46 105 -61 28 -15 61 -35 74 -45 14 -12 40
-19 65 -19 59 0 181 -36 251 -74 215 -117 298 -181 362 -281 24 -38 63 -68
148 -114 22 -12 65 -37 95 -56 30 -19 80 -48 110 -65 30 -17 80 -46 110 -65
30 -19 80 -48 110 -65 30 -17 80 -46 110 -65 30 -19 80 -48 110 -65 55 -31
140 -81 235 -138 28 -17 75 -45 105 -62 30 -17 80 -46 110 -65 30 -19 80 -48
110 -65 30 -17 80 -46 110 -65 30 -19 80 -48 110 -64 102 -56 102 -56 90 -136
-5 -39 -10 -113 -10 -165 0 -92 -15 -269 -25 -300 -4 -11 -65 -27 -222 -58
-120 -23 -288 -56 -373 -73 -133 -26 -160 -28 -192 -18 -44 14 -79 7 -112 -24
-20 -19 -68 -32 -268 -71 -134 -26 -477 -94 -763 -151 -286 -57 -752 -149
-1035 -205 -283 -56 -715 -141 -960 -190 -245 -49 -699 -139 -1010 -200 -311
-61 -765 -151 -1010 -200 -245 -49 -553 -109 -685 -135 -132 -26 -245 -48
-251 -50 -6 -2 -42 36 -79 83 -38 48 -92 117 -122 155 -141 179 -229 290 -347
443 -38 49 -93 119 -123 157 -29 37 -78 99 -108 137 -30 39 -80 102 -110 140
-30 39 -80 102 -110 140 -30 39 -80 102 -110 140 -64 81 -136 172 -224 285
-35 44 -72 84 -82 89 -23 11 -27 41 -34 291 -3 110 -10 255 -15 322 -8 97 -7
132 4 165 7 24 33 104 56 178 23 74 59 187 80 250 21 63 57 176 80 250 23 74
55 173 70 220 15 47 51 159 80 250 29 91 65 203 80 250 15 47 47 146 70 220
23 74 59 187 80 250 21 63 57 176 80 250 23 74 55 173 70 220 15 47 47 146 70
220 23 74 59 187 80 250 21 63 57 176 80 250 23 74 55 173 70 220 16 47 33
104 39 127 11 41 12 42 64 47 28 3 1321 76 2872 161 1551 85 2848 158 2883
161 l63 6 -21 -41 c-16 -33 -26 -41 -48 -41 -15 0 -178 -9 -362 -20 -184 -11
-510 -29 -725 -40 -214 -12 -404 -23 -422 -26 -29 -4 -31 -6 -26 -42 4 -29 -1
-45 -21 -72 -176 -240 -238 -397 -273 -690 -17 -146 -14 -338 8 -445 17 -86
58 -243 76 -290 9 -22 19 -56 24 -75 11 -52 74 -220 103 -278 14 -28 26 -58
26 -66 0 -8 21 -45 46 -83 25 -37 55 -86 66 -107 36 -71 183 -262 211 -274 4
-2 14 -17 23 -34 l16 -30 16 23 c17 23 49 78 117 199 20 36 56 99 80 140 24
41 58 100 75 130 17 30 51 89 75 130 24 41 60 104 80 140 20 36 54 94 75 130
21 36 55 94 75 130 20 36 56 99 80 140 24 41 58 100 75 130 17 30 51 89 75
130 24 41 60 104 80 140 20 36 54 94 75 130 21 36 55 94 75 130 20 36 56 99
80 140 24 41 58 100 75 130 17 30 51 89 75 130 24 41 60 104 80 140 20 36 54
94 75 130 71 119 130 239 130 265 0 39 -26 81 -58 94 -42 18 -6149 -322 -6193
-344 -33 -17 -66 -78 -93 -170 -10 -33 -31 -98 -46 -145 -15 -47 -47 -146 -70
-220 -23 -74 -59 -187 -80 -250 -21 -63 -57 -176 -80 -250 -23 -74 -55 -173
-70 -220 -15 -47 -47 -146 -70 -220 -23 -74 -59 -187 -80 -250 -21 -63 -57
-176 -80 -250 -23 -74 -55 -173 -70 -220 -15 -47 -51 -159 -80 -250 -29 -91
-65 -203 -80 -250 -15 -47 -47 -146 -70 -220 -23 -74 -59 -187 -80 -250 -21
-63 -52 -161 -70 -218 -36 -115 -30 -113 -106 -34 l-42 44 15 51 c26 94 51
181 68 237 9 30 25 85 36 123 10 37 28 99 39 137 11 39 29 100 39 138 11 37
27 92 36 122 9 30 25 85 36 123 10 37 28 99 39 137 11 39 29 100 39 138 11 37
27 92 36 122 9 30 25 85 36 123 10 37 28 99 39 137 11 39 29 100 39 138 11 37
27 92 36 122 9 30 25 85 36 123 10 37 28 99 39 137 11 39 29 102 40 140 11 39
29 100 39 138 11 37 27 92 36 122 9 30 25 85 36 123 10 37 28 99 39 137 11 39
29 100 39 138 11 37 27 92 36 122 9 30 25 85 36 123 10 37 28 97 38 135 11 37
27 94 36 127 9 33 20 71 25 85 5 14 18 58 29 98 31 108 62 212 64 213 1 1
1402 72 3112 159 1711 87 3117 158 3125 159 8 0 30 -18 48 -41z m-6558 -476
c0 -5 -9 -40 -21 -78 -11 -38 -28 -94 -37 -124 -17 -61 -25 -70 -62 -70 -100
-1 -285 -79 -374 -158 -29 -26 -78 -69 -109 -96 -137 -121 -324 -430 -381
-631 -10 -33 -21 -73 -26 -90 -40 -137 -80 -461 -80 -655 0 -215 44 -443 133
-690 43 -120 90 -214 117 -233 23 -16 25 -3 -31 -199 -10 -38 -28 -100 -38
-139 -11 -40 -24 -76 -29 -81 -21 -21 -172 343 -172 413 0 11 -4 28 -9 38 -16
29 -60 260 -70 371 -6 58 -16 161 -23 230 -16 164 -17 653 0 795 20 168 50
361 71 450 22 94 92 294 118 335 54 85 101 144 175 220 169 174 303 270 418
300 25 6 81 25 125 42 116 44 305 75 305 50z m8870 -437 c124 -8 268 -22 320
-30 52 -8 124 -17 160 -20 36 -4 99 -15 140 -25 41 -10 95 -21 120 -25 66 -10
312 -72 415 -105 50 -16 113 -36 140 -44 78 -24 133 -45 178 -68 23 -11 53
-24 67 -29 63 -19 138 -53 310 -136 102 -50 214 -103 250 -118 132 -55 367
-176 431 -222 190 -137 389 -329 389 -376 0 -38 -56 -122 -120 -179 -62 -57
-257 -161 -350 -187 -25 -7 -58 -16 -75 -21 -16 -5 -77 -17 -135 -27 -88 -15
-160 -18 -445 -18 -220 0 -370 4 -425 12 -47 7 -150 20 -230 28 -201 21 -307
40 -440 80 -30 10 -80 23 -110 30 -73 18 -184 52 -240 74 -25 10 -72 28 -105
41 -71 25 -156 61 -244 102 -35 16 -85 36 -110 45 -46 15 -319 152 -441 221
-94 53 -199 124 -241 163 -20 19 -48 43 -64 54 -67 48 -266 257 -308 322 -70
110 -80 132 -79 191 0 48 4 58 29 79 32 27 142 86 205 109 91 33 307 86 388
94 105 11 324 5 620 -15z m-1304 -612 c27 -46 250 -277 308 -318 15 -11 43
-34 62 -52 39 -37 149 -112 244 -165 122 -68 495 -255 541 -271 25 -9 75 -29
110 -46 133 -61 236 -104 279 -116 25 -7 61 -19 80 -28 41 -19 153 -53 230
-72 30 -7 80 -20 110 -30 133 -40 239 -59 440 -80 80 -8 183 -21 230 -28 56
-8 213 -12 465 -12 323 0 396 3 485 18 58 10 120 23 138 28 17 5 49 14 70 19
91 26 338 147 411 201 l48 37 -12 -42 c-7 -22 -20 -57 -28 -76 -8 -19 -22 -53
-30 -75 -8 -22 -29 -74 -47 -115 -17 -41 -38 -100 -46 -130 -13 -50 -25 -82
-71 -190 -17 -40 -33 -87 -63 -190 -12 -41 -28 -94 -36 -118 -8 -23 -14 -50
-14 -60 0 -10 -8 -40 -18 -68 -11 -28 -27 -84 -37 -125 -10 -41 -23 -85 -30
-99 -7 -14 -15 -45 -19 -69 -4 -24 -14 -57 -23 -75 -9 -17 -20 -47 -24 -66 -4
-19 -15 -60 -24 -90 -9 -30 -27 -93 -40 -140 -26 -95 -51 -180 -67 -225 -5
-16 -14 -48 -18 -70 -4 -22 -17 -65 -29 -95 -12 -30 -26 -80 -30 -110 -5 -30
-17 -80 -26 -110 -33 -111 -57 -196 -66 -240 -5 -25 -13 -56 -18 -70 -5 -14
-23 -72 -41 -130 -37 -123 -117 -382 -131 -425 -6 -16 -17 -52 -25 -80 -8 -27
-20 -63 -25 -80 -6 -16 -17 -51 -25 -78 -8 -26 -21 -71 -30 -100 -8 -28 -28
-99 -44 -157 -26 -98 -67 -236 -92 -305 -19 -55 -36 -109 -68 -215 -17 -58
-43 -139 -56 -180 -14 -41 -29 -88 -33 -105 -5 -16 -29 -73 -53 -125 -52 -110
-118 -189 -211 -250 -96 -63 -243 -129 -288 -130 -10 0 -70 -18 -135 -39 -154
-51 -356 -90 -544 -105 -107 -9 -587 11 -699 29 -92 14 -264 63 -388 111 -213
82 -245 98 -376 198 -72 55 -77 61 -72 90 3 17 16 110 29 206 92 663 89 642
111 635 119 -35 290 -28 440 16 101 30 125 39 225 79 107 44 448 227 487 261
10 9 41 29 68 43 28 15 68 40 90 57 22 16 52 38 66 47 35 24 263 217 319 272
44 42 258 290 307 355 37 49 176 253 206 303 16 26 41 61 57 77 51 55 61 91
38 140 -13 29 -55 55 -89 55 -38 0 -98 -43 -133 -94 -18 -28 -69 -105 -112
-171 -43 -66 -91 -136 -106 -155 -99 -123 -278 -331 -313 -365 -55 -53 -282
-245 -314 -267 -14 -9 -44 -31 -66 -47 -22 -17 -61 -42 -86 -55 -26 -14 -69
-40 -95 -58 -96 -66 -285 -165 -414 -217 -217 -87 -372 -112 -508 -81 -59 14
-62 16 -57 40 5 22 26 176 42 303 5 38 10 47 25 47 33 0 75 28 86 57 22 54 43
213 52 399 5 104 14 227 20 273 6 46 8 92 4 103 -12 39 -74 90 -172 144 -26
14 -72 40 -102 59 -30 19 -80 48 -110 65 -30 17 -80 46 -110 65 -30 19 -80 48
-110 65 -30 17 -80 46 -110 65 -30 19 -80 48 -110 65 -30 17 -84 49 -120 70
-70 42 -129 77 -200 117 -25 14 -63 37 -85 51 -22 15 -41 27 -42 27 -2 1 13
39 33 86 20 46 40 98 46 114 5 17 18 46 29 66 10 20 30 83 45 140 14 57 29
118 34 134 30 105 63 226 70 262 5 23 21 76 35 118 14 41 25 83 25 93 0 9 7
37 16 62 9 25 22 70 29 100 8 30 20 80 29 110 47 173 73 268 127 480 33 129
69 271 80 315 11 44 29 105 40 135 12 30 25 71 29 90 5 19 21 78 35 130 15 52
31 119 37 148 5 28 14 52 18 52 4 0 21 -21 36 -47z m-1231 -365 c21 -50 49
-106 62 -125 13 -19 23 -40 23 -47 0 -7 8 -24 18 -37 11 -13 40 -62 66 -109
58 -104 58 -106 126 -208 100 -152 135 -195 253 -315 l77 -79 -15 -44 c-8 -25
-15 -52 -15 -62 0 -10 -9 -42 -20 -72 -11 -30 -20 -63 -20 -72 0 -10 -11 -52
-25 -93 -14 -42 -30 -95 -35 -118 -8 -37 -42 -166 -71 -264 -5 -18 -13 -48
-18 -65 -4 -18 -15 -49 -24 -68 -23 -51 -44 -131 -67 -249 -11 -58 -22 -107
-24 -109 -3 -2 -17 5 -33 16 -33 23 -78 50 -153 92 -30 17 -80 46 -110 65 -30
19 -80 48 -110 65 -30 17 -80 46 -110 65 -30 19 -80 48 -110 65 -30 17 -80 46
-110 65 -30 19 -80 48 -110 65 -30 17 -80 46 -110 65 -30 19 -76 45 -102 59
-25 14 -62 36 -81 48 -19 13 -42 28 -52 33 -16 10 -15 15 14 70 18 33 52 94
76 135 24 41 58 100 75 130 17 30 51 89 75 130 24 41 60 104 80 140 20 36 56
99 80 140 24 41 60 104 80 140 20 36 54 94 75 130 21 36 55 94 75 130 20 36
56 99 80 140 24 41 56 98 70 125 32 60 68 115 75 115 3 0 23 -41 45 -92z
m5680 -1070 c38 -44 87 -92 109 -107 21 -14 56 -37 76 -51 21 -14 62 -41 92
-62 50 -34 98 -59 142 -72 14 -5 17 -12 11 -29 -6 -21 -19 -68 -109 -404 -108
-402 -171 -633 -206 -763 -17 -63 -47 -172 -66 -242 -19 -71 -49 -185 -68
-255 -36 -131 -78 -290 -140 -518 -19 -71 -49 -182 -66 -245 -34 -125 -78
-289 -134 -497 -67 -248 -105 -388 -136 -503 -34 -125 -78 -289 -134 -497 -20
-73 -51 -190 -70 -260 -19 -71 -49 -182 -66 -248 -50 -194 -48 -192 -154 -180
-72 7 -106 25 -207 110 -242 203 -299 300 -299 509 0 38 -5 84 -11 101 -10 26
-8 40 16 95 14 36 30 79 35 95 5 17 20 64 34 105 13 41 39 122 56 180 32 106
49 160 68 215 25 69 66 207 92 305 16 58 36 129 44 158 9 28 22 73 30 100 8
26 19 61 25 77 5 17 17 53 25 80 8 28 19 64 25 80 14 43 94 302 131 425 18 58
36 116 41 130 5 14 13 45 18 70 9 44 33 129 66 240 9 30 21 80 26 110 4 30 18
80 30 110 12 30 25 73 29 95 4 22 13 54 18 70 16 45 41 130 67 225 13 47 31
110 40 140 9 30 20 71 24 90 4 19 15 49 24 66 9 18 19 51 23 75 4 24 12 55 19
69 7 14 20 58 30 99 10 41 26 97 37 125 10 28 18 58 18 68 0 10 6 37 14 60 8
24 24 77 36 118 29 98 81 243 104 289 8 14 17 42 21 61 4 19 19 61 33 93 l26
59 21 -41 c11 -23 52 -78 90 -123z m-12466 -2543 c50 -62 52 -66 41 -97 -15
-42 74 -2288 92 -2321 27 -51 952 -1273 971 -1284 49 -27 123 -6 144 40 9 19
9 108 3 334 -5 169 -9 455 -10 635 0 254 -4 364 -19 495 -11 92 -22 251 -25
353 -4 102 -9 219 -12 260 l-6 75 39 -42 c21 -23 52 -45 68 -49 24 -6 282 37
376 62 23 6 26 -54 57 -1176 4 -140 5 -376 1 -525 -8 -355 4 -732 25 -772 17
-34 65 -58 98 -50 13 3 52 13 88 22 36 9 130 29 210 45 80 16 210 43 290 60
80 17 210 44 290 60 80 16 210 43 290 60 80 17 210 44 290 60 80 16 210 43
290 60 80 17 210 44 290 60 80 16 210 43 290 60 80 17 210 44 290 60 251 51
480 99 630 130 80 17 210 44 290 60 80 16 210 43 290 60 80 17 210 44 290 60
80 16 210 43 290 60 80 17 210 44 290 60 80 16 210 43 290 60 80 17 210 44
290 60 313 64 329 69 348 117 6 15 34 214 62 442 41 326 56 420 71 445 21 34
24 68 9 96 -7 14 3 124 35 392 25 205 48 387 51 403 4 25 17 37 77 71 40 22
93 48 119 58 26 10 56 29 67 42 15 19 46 101 55 146 0 4 6 4 12 0 7 -5 1 -76
-22 -237 -18 -126 -51 -363 -74 -525 -22 -162 -49 -356 -60 -430 -11 -74 -38
-268 -60 -430 -23 -162 -57 -405 -75 -540 -19 -135 -37 -264 -40 -287 -7 -51
12 -45 -325 -113 -52 -11 -138 -29 -190 -40 -52 -11 -138 -29 -190 -40 -97
-20 -162 -34 -330 -70 -52 -11 -138 -29 -190 -40 -52 -11 -138 -29 -190 -40
-52 -11 -138 -29 -190 -40 -52 -11 -138 -29 -190 -40 -52 -11 -138 -29 -190
-40 -52 -11 -138 -29 -190 -40 -52 -11 -138 -29 -190 -40 -52 -11 -138 -29
-190 -40 -52 -11 -138 -29 -190 -40 -97 -20 -162 -34 -330 -70 -52 -11 -138
-29 -190 -40 -52 -11 -138 -29 -190 -40 -52 -11 -138 -29 -190 -40 -52 -11
-138 -29 -190 -40 -52 -11 -138 -29 -190 -40 -52 -11 -138 -29 -190 -40 -52
-11 -138 -29 -190 -40 -52 -11 -138 -29 -190 -40 -52 -11 -138 -29 -190 -40
-97 -20 -162 -34 -330 -70 -52 -11 -138 -29 -190 -40 -52 -11 -138 -29 -190
-40 -52 -11 -138 -29 -190 -40 -52 -11 -129 -27 -170 -36 -41 -9 -134 -28
-206 -43 l-132 -27 -30 45 c-17 25 -53 78 -81 116 -27 39 -67 95 -89 125 -21
30 -55 79 -75 107 -20 29 -54 77 -74 105 -20 29 -49 71 -64 93 -16 22 -50 72
-78 110 -27 39 -67 95 -89 125 -79 114 -113 161 -147 210 -34 49 -68 96 -147
210 -22 30 -62 87 -89 125 -28 39 -62 88 -78 110 -15 22 -44 64 -64 93 -20 28
-54 76 -74 105 -100 141 -118 167 -164 232 -28 39 -65 93 -84 120 l-34 51 -11
239 c-5 132 -19 472 -30 755 -43 1089 -50 1269 -56 1403 -3 75 -4 137 -2 137
3 0 28 -29 57 -65z m8098 -312 c-4 -27 -12 -90 -18 -140 -12 -99 -14 -101 -68
-82 l-31 11 0 118 0 118 53 10 c28 5 56 10 61 11 5 0 6 -20 3 -46z m-707 -117
c46 -72 73 -105 114 -136 47 -36 52 -45 36 -70 -7 -12 -14 -12 -43 -2 -18 7
-40 12 -49 12 -8 0 -48 14 -88 30 -81 33 -118 37 -159 16 -71 -37 -64 -147 11
-175 98 -37 126 -53 121 -72 -14 -51 31 -114 113 -160 36 -21 51 -35 49 -47
-2 -9 -11 -87 -21 -172 -9 -85 -19 -158 -23 -162 -5 -6 -187 -42 -371 -73 -41
-7 -95 -18 -118 -24 -24 -7 -78 -19 -120 -26 -43 -8 -174 -33 -292 -55 -118
-23 -237 -45 -265 -50 -27 -5 -61 -14 -75 -19 -31 -12 -159 -36 -301 -56 -58
-8 -137 -22 -175 -31 -38 -8 -100 -19 -139 -24 -38 -5 -90 -14 -115 -19 -25
-5 -58 -12 -75 -16 -16 -3 -46 -9 -65 -14 l-36 -8 -12 261 c-7 144 -19 331
-27 416 -8 85 -14 182 -15 216 l0 60 293 58 c1064 210 1774 352 1827 365 3 0
12 -10 20 -23z m387 -48 c-2 -13 -4 -5 -4 17 -1 22 1 32 4 23 2 -10 2 -28 0
-40z m-2702 -788 c9 -107 20 -395 25 -640 9 -457 22 -775 42 -1078 6 -94 9
-175 6 -178 -4 -3 -59 -17 -125 -30 -65 -13 -130 -27 -145 -31 l-28 -5 0 98
c0 55 -7 178 -14 274 -8 96 -17 281 -21 410 -4 129 -13 336 -21 460 -8 134
-14 395 -14 648 l0 422 28 1 c15 0 74 10 132 22 l105 22 7 -100 c3 -55 14
-188 23 -295z m-493 -150 c1 -247 2 -464 2 -482 l1 -31 -135 -34 c-333 -84
-328 -83 -380 -93 -130 -26 -267 -49 -450 -76 -164 -25 -198 -31 -300 -54 -52
-12 -120 -25 -150 -30 -30 -5 -109 -18 -175 -29 -365 -60 -499 -83 -585 -101
-52 -10 -158 -24 -235 -30 -77 -6 -166 -15 -198 -22 -32 -6 -60 -8 -64 -5 -3
4 -9 152 -14 329 -4 178 -11 380 -15 451 -4 70 -4 127 0 127 4 0 208 40 454
89 246 49 701 140 1012 201 311 62 707 140 880 175 173 35 323 64 333 64 16 1
17 -28 19 -449z m2841 -212 c-3 -24 -11 -79 -17 -123 l-11 -80 -50 -12 c-27
-6 -75 -19 -105 -28 -110 -33 -158 -45 -276 -70 -207 -45 -372 -85 -474 -114
-111 -31 -262 -62 -485 -97 -55 -8 -138 -22 -185 -29 -251 -41 -501 -77 -506
-72 -1 1 -5 61 -9 133 l-7 131 63 12 c35 6 82 16 104 20 22 5 76 14 120 21 44
7 121 21 170 31 50 11 137 26 195 34 140 20 269 44 300 56 14 5 48 14 75 19
28 5 147 27 265 50 118 22 249 47 290 55 42 7 102 20 135 28 33 9 92 20 130
27 39 6 113 19 165 29 52 11 100 19 107 20 7 1 9 -13 6 -41z m752 -365 c45
-27 114 -63 155 -80 189 -80 247 -103 255 -103 6 0 59 -16 120 -35 60 -19 152
-42 205 -50 144 -23 668 -39 814 -26 135 13 120 20 182 -83 65 -110 131 -290
158 -438 9 -49 10 -68 2 -68 -9 0 -93 14 -356 60 -99 18 -321 39 -505 50 -281
15 -740 53 -970 80 -44 5 -119 12 -167 16 -79 6 -88 9 -88 27 0 11 16 130 35
266 19 135 40 284 46 331 13 99 16 113 26 107 5 -3 44 -27 88 -54z m-808 -85
c-4 -18 -23 -170 -43 -338 -21 -168 -38 -306 -38 -307 -1 -1 -80 -18 -176 -37
-96 -20 -240 -49 -320 -66 -80 -17 -210 -44 -290 -60 -80 -16 -210 -43 -290
-60 -80 -17 -210 -44 -290 -60 -80 -16 -210 -43 -290 -60 -80 -17 -167 -35
-195 -40 -27 -6 -58 -13 -67 -16 -16 -5 -18 2 -18 46 0 28 -4 92 -9 143 -5 51
-12 178 -16 283 l-6 191 103 12 c97 11 222 30 348 51 30 5 98 16 150 25 396
65 496 84 610 116 102 29 267 69 474 114 66 14 143 32 170 39 140 40 158 45
164 50 3 3 12 6 20 6 11 0 13 -8 9 -32z m-2763 -95 c3 -21 6 -77 6 -124 l0
-86 -172 -27 c-167 -27 -321 -55 -410 -75 -116 -27 -325 -63 -528 -91 -124
-17 -270 -38 -325 -46 -55 -8 -131 -19 -168 -24 -71 -10 -168 -28 -327 -62
-52 -11 -129 -26 -170 -33 -41 -7 -106 -21 -145 -30 -193 -45 -297 -65 -367
-71 l-78 -7 0 119 0 120 90 12 c49 7 147 17 217 23 71 5 171 19 223 29 86 18
222 41 585 101 66 11 145 24 175 29 30 5 98 18 150 30 102 23 136 29 300 54
243 36 442 72 535 95 121 30 171 42 275 70 63 16 118 30 121 30 4 1 9 -16 13
-36z m16 -480 c0 -38 5 -118 11 -180 5 -61 13 -183 17 -272 l7 -160 -42 -10
c-23 -6 -108 -24 -190 -41 -81 -16 -213 -43 -293 -60 -80 -17 -210 -44 -290
-60 -80 -16 -210 -43 -290 -60 -80 -17 -210 -44 -290 -60 -80 -16 -210 -43
-290 -60 -80 -17 -210 -44 -290 -60 -80 -16 -201 -41 -270 -56 -69 -14 -207
-43 -306 -63 l-182 -37 -3 166 c-2 91 -2 266 1 390 l5 225 90 7 c81 6 193 27
390 73 39 9 104 23 145 30 41 7 118 22 170 33 159 34 256 52 327 62 37 5 113
16 168 24 55 8 201 29 325 46 124 17 268 40 320 50 52 11 120 24 150 29 30 6
89 18 130 27 57 12 427 77 473 83 4 1 7 -29 7 -66z"/>
<path d="M6670 11283 c-19 -2 -316 -19 -660 -38 -344 -19 -906 -51 -1250 -70
-344 -19 -900 -51 -1237 -70 -489 -27 -619 -37 -643 -50 -38 -20 -65 -76 -121
-255 -23 -74 -54 -173 -69 -220 -15 -47 -42 -132 -60 -190 -18 -58 -45 -143
-60 -190 -15 -47 -47 -146 -70 -220 -23 -74 -55 -173 -70 -220 -15 -47 -42
-132 -60 -190 -18 -58 -45 -143 -60 -190 -15 -47 -47 -146 -70 -220 -23 -74
-50 -160 -60 -190 -10 -30 -37 -116 -60 -190 -23 -74 -55 -173 -70 -220 -15
-47 -42 -132 -60 -190 -18 -58 -45 -143 -60 -190 -76 -233 -78 -245 -55 -289
27 -53 60 -57 219 -32 547 85 589 94 642 125 118 72 120 75 133 283 7 93 16
155 26 177 19 39 147 194 187 226 15 12 70 41 121 65 148 69 212 111 295 193
58 59 89 81 128 95 64 21 93 22 123 0 27 -18 28 -17 63 47 10 17 33 37 52 45
48 20 69 55 100 169 32 118 51 155 109 221 l45 50 15 -50 c17 -59 96 -255 107
-270 5 -5 25 -53 45 -105 42 -109 106 -241 239 -490 l93 -175 -31 -7 c-17 -3
-39 -16 -48 -28 -49 -60 7 -126 122 -145 25 -4 104 -27 177 -51 72 -24 141
-44 153 -44 12 0 34 13 50 28 25 25 28 36 29 89 0 32 6 79 14 104 56 170 57
190 11 236 -20 20 -32 24 -59 20 -31 -5 -35 -2 -69 50 -20 30 -36 59 -36 63 0
4 -12 23 -27 42 -16 19 -44 71 -64 114 -52 112 -112 247 -149 334 -18 41 -38
82 -45 90 -19 23 -81 164 -123 280 -11 30 -32 86 -45 123 l-26 68 42 26 c23
14 61 41 84 59 108 88 306 164 424 164 100 -1 195 -54 220 -125 l13 -34 110 2
c90 1 124 -3 183 -21 l73 -23 -21 -37 c-11 -20 -31 -55 -45 -77 -56 -92 -64
-126 -40 -160 7 -11 16 -38 20 -60 3 -22 13 -78 21 -125 14 -81 67 -434 99
-664 17 -123 33 -154 88 -173 19 -6 50 -22 69 -35 19 -13 81 -38 138 -57 130
-42 144 -39 187 44 51 98 69 129 92 162 12 17 26 41 31 54 5 13 29 55 54 92
25 38 49 78 53 90 3 12 15 32 27 44 11 13 23 39 26 58 l6 36 60 -83 c82 -112
88 -125 135 -271 l41 -129 52 7 c57 7 455 72 500 81 l29 6 -29 18 c-36 22
-181 196 -229 275 -21 33 -53 84 -72 113 -43 67 -129 249 -174 367 -53 140
-59 158 -68 195 -4 19 -14 53 -23 75 -17 45 -58 201 -77 290 -6 33 -14 134
-17 225 -8 245 26 497 86 647 42 107 124 279 141 298 10 11 29 39 44 63 l26
42 -62 -2 c-35 -1 -79 -3 -98 -5z m-2597 -372 c82 -37 131 -90 167 -180 31
-77 37 -119 20 -152 -9 -17 -7 -19 16 -19 38 0 100 -65 110 -115 4 -22 2 -51
-4 -69 -12 -32 -6 -76 9 -76 17 0 77 -61 89 -90 26 -63 -18 -124 -133 -185
l-75 -39 5 -41 c7 -63 32 -144 63 -204 15 -31 49 -110 75 -176 26 -66 73 -174
106 -240 62 -128 109 -230 109 -239 0 -5 51 -120 95 -211 13 -27 38 -84 55
-125 18 -41 40 -86 50 -100 9 -14 38 -60 64 -102 46 -77 46 -78 35 -125 -7
-26 -13 -50 -15 -52 -2 -2 -26 5 -54 15 -40 14 -50 22 -50 41 0 16 -6 23 -19
23 -37 0 -61 37 -136 209 -41 95 -90 205 -109 245 -18 39 -48 105 -66 146 -19
41 -56 122 -83 180 -84 178 -198 456 -228 556 -5 18 -26 50 -47 72 l-37 40
-60 -19 c-33 -10 -82 -19 -109 -19 -45 0 -52 4 -99 50 -45 45 -49 53 -44 85 5
32 4 35 -19 35 -26 0 -74 40 -74 62 0 8 -18 37 -40 67 -43 58 -49 84 -24 120
15 21 15 25 -4 50 -11 15 -32 51 -47 81 -15 30 -36 65 -46 80 -24 33 -52 145
-44 177 3 13 19 32 35 41 19 11 36 33 47 60 24 62 63 92 123 92 38 0 55 -6 79
-26 l31 -26 0 37 c0 27 8 44 29 66 28 27 34 29 110 29 69 0 91 -5 144 -29z
m1994 -890 c40 -15 43 -15 57 4 15 19 15 19 16 -6 0 -34 65 -433 84 -519 18
-81 32 -426 18 -443 -6 -7 -43 -71 -84 -142 -76 -133 -82 -143 -137 -232 l-32
-51 -57 19 c-100 35 -100 35 -56 125 21 42 47 91 59 108 26 38 67 116 90 171
9 22 27 56 40 75 37 57 49 128 31 186 -8 27 -22 110 -31 184 -17 147 -58 452
-70 514 -7 36 -6 39 11 31 10 -4 38 -15 61 -24z m-217 -50 c0 -5 12 -91 26
-192 46 -337 56 -423 57 -499 1 -71 -2 -80 -51 -179 -29 -58 -59 -112 -67
-121 -8 -9 -20 -31 -26 -49 -6 -17 -13 -30 -16 -28 -4 4 -29 160 -73 452 -11
72 -27 168 -35 215 l-14 85 44 82 c24 45 65 112 90 149 25 37 45 74 45 81 0 7
5 13 10 13 6 0 10 -4 10 -9z"/>
<path d="M6953 8552 c-150 -26 -273 -49 -273 -53 0 -4 32 -11 71 -17 73 -11
98 -24 183 -95 l45 -38 141 22 141 23 37 -21 c20 -12 56 -32 79 -44 l41 -22
49 31 c46 29 97 54 137 66 16 5 12 11 -25 35 -149 95 -281 161 -321 160 -18
-1 -156 -22 -305 -47z"/>
<path d="M3515 8333 c-27 -8 -63 -18 -80 -23 -167 -48 -318 -139 -422 -257
-221 -247 -259 -327 -251 -532 4 -94 9 -124 26 -158 12 -23 22 -51 22 -62 0
-11 23 -44 51 -73 28 -29 63 -71 77 -93 69 -107 175 -263 194 -288 l22 -27
-39 -32 c-102 -83 -117 -117 -70 -163 35 -36 65 -31 134 21 64 48 202 113 286
133 81 20 304 24 355 6 58 -21 77 -19 105 10 50 49 19 112 -72 143 l-52 17 76
83 c79 87 175 159 227 173 60 15 161 61 179 81 24 29 21 65 -9 95 -22 22 -32
25 -69 21 l-43 -5 -5 39 c-5 39 4 170 19 256 12 74 60 199 104 272 23 38 46
70 50 70 20 0 70 60 70 84 0 39 -41 76 -85 76 -50 0 -124 -70 -171 -164 -20
-39 -38 -72 -39 -74 -2 -2 -18 21 -37 51 -49 80 -114 179 -137 209 -31 39
-122 86 -209 108 -89 23 -137 23 -207 3z m174 -151 c35 -10 69 -25 75 -34 14
-23 -17 -214 -45 -278 -23 -53 -107 -178 -158 -235 -36 -41 -141 -132 -201
-176 -125 -90 -343 -119 -418 -54 -26 23 -27 26 -27 137 0 103 2 118 28 169
15 31 61 98 103 149 139 172 256 255 424 301 154 43 137 42 219 21z m248 -240
c12 -20 39 -70 58 -110 l36 -74 -12 -71 c-7 -40 -13 -134 -13 -209 l-1 -137
-60 -42 c-116 -81 -181 -147 -285 -290 l-40 -55 -93 -11 c-50 -7 -121 -21
-156 -32 l-65 -21 -39 37 c-40 39 -128 167 -171 247 l-24 46 58 0 c125 0 272
70 430 205 100 86 129 119 222 257 69 100 105 180 115 254 3 24 8 44 12 44 3
0 16 -17 28 -38z"/>
<path d="M3335 7913 c-49 -17 -85 -51 -136 -127 -47 -70 -51 -115 -14 -151 35
-36 97 -34 156 4 70 47 104 82 135 138 34 62 28 95 -25 130 -38 26 -59 27
-116 6z"/>
<path d="M6886 8269 c-60 -4 -120 -10 -135 -14 -80 -19 -195 -73 -258 -120
-62 -46 -72 -51 -88 -38 -11 7 -35 13 -55 12 -19 -1 -82 4 -140 11 -167 20
-405 19 -460 -2 -25 -9 -67 -26 -95 -36 -122 -47 -318 -166 -397 -243 -47 -46
-48 -69 -3 -143 19 -32 35 -63 35 -68 0 -6 11 -31 24 -57 22 -43 48 -100 126
-281 111 -256 199 -423 232 -441 27 -14 80 -3 113 23 30 24 78 42 323 123 201
67 319 89 444 82 144 -9 164 -14 179 -48 14 -35 45 -59 76 -59 13 0 46 24 86
64 65 63 196 155 272 190 40 18 162 59 265 89 110 32 200 40 363 33 l158 -6
24 24 c42 42 35 94 -30 220 -30 58 -65 122 -78 140 -105 157 -141 208 -179
253 -24 28 -68 82 -98 119 -103 128 -133 154 -176 154 -22 1 -68 7 -104 15
-70 16 -243 17 -424 4z m439 -160 c41 -8 75 -20 82 -30 7 -9 53 -66 103 -125
99 -119 227 -302 276 -395 l31 -59 -116 0 c-110 0 -246 -17 -314 -40 -18 -5
-72 -23 -122 -40 -174 -56 -270 -105 -372 -187 l-43 -34 -10 26 c-5 14 -10 30
-10 35 0 5 -17 47 -39 92 -21 46 -46 105 -55 132 -9 27 -26 60 -36 74 -11 13
-20 35 -20 49 0 23 -99 231 -146 304 -22 35 -22 39 -7 54 59 60 170 121 254
140 103 24 425 27 544 4z m-1137 -139 c114 -12 153 -35 209 -123 49 -76 93
-161 93 -180 0 -8 9 -26 20 -40 11 -14 20 -34 20 -45 0 -11 17 -58 39 -104 82
-176 111 -240 111 -247 0 -3 -57 -4 -126 -3 -84 3 -157 -2 -220 -12 -84 -15
-361 -97 -439 -130 -16 -8 -60 -25 -96 -38 l-67 -25 -55 111 c-31 61 -70 145
-87 186 -18 41 -47 109 -65 150 -19 41 -40 93 -48 115 -8 22 -30 70 -49 106
l-34 66 71 49 c98 70 264 149 370 178 25 6 229 -2 353 -14z"/>
<path d="M7085 8060 c-49 -4 -115 -15 -145 -23 -190 -53 -213 -63 -257 -105
-40 -37 -43 -73 -8 -107 30 -31 53 -31 108 -3 107 54 239 83 426 94 112 6 127
9 148 30 30 30 29 69 -2 99 -22 23 -32 25 -102 24 -43 -1 -118 -5 -168 -9z"/>
<path d="M7250 7864 c-36 -7 -111 -21 -167 -29 -57 -8 -113 -19 -125 -24 -13
-5 -56 -19 -96 -32 -102 -31 -131 -81 -77 -134 28 -29 66 -32 122 -11 90 33
134 42 447 91 61 10 84 18 98 35 25 31 23 66 -7 95 -20 21 -34 25 -77 24 -29
0 -82 -7 -118 -15z"/>
<path d="M7020 7555 c-25 -14 -69 -32 -99 -41 -96 -29 -128 -88 -75 -141 22
-22 31 -24 67 -19 55 9 215 84 233 110 21 30 17 64 -11 91 -30 31 -57 31 -115
0z"/>
<path d="M6005 7864 c-11 -3 -58 -11 -105 -20 -107 -19 -177 -39 -257 -76 -87
-39 -107 -85 -58 -133 29 -30 75 -33 119 -6 38 23 113 45 226 66 136 27 221
30 277 12 27 -9 68 -19 90 -23 36 -5 45 -3 67 19 15 15 26 38 26 52 0 32 -38
72 -77 81 -15 3 -47 12 -71 20 -39 13 -188 18 -237 8z"/>
<path d="M6085 7585 c-55 -7 -122 -18 -150 -24 -27 -5 -81 -17 -120 -25 -107
-23 -147 -85 -90 -141 29 -30 37 -30 140 -6 209 48 328 61 443 49 70 -8 88 -7
108 7 50 33 40 105 -19 129 -49 21 -200 26 -312 11z"/>
<path d="M5905 7297 c-11 -7 -39 -19 -62 -25 -72 -21 -95 -81 -48 -127 30 -31
73 -32 134 -5 24 11 52 20 63 20 27 0 68 45 68 75 0 41 -41 75 -92 75 -24 0
-52 -6 -63 -13z"/>
<path d="M8511 7818 c27 -57 55 -125 62 -153 10 -41 18 -53 48 -69 32 -17 36
-25 47 -82 7 -35 12 -75 12 -89 0 -30 12 -36 125 -66 44 -11 103 -33 130 -49
50 -28 113 -86 104 -94 -5 -5 24 0 -1079 -191 -471 -81 -770 -133 -1010 -175
-225 -39 -432 -75 -1012 -175 -145 -25 -379 -66 -520 -90 -142 -25 -374 -65
-515 -90 -142 -24 -364 -63 -493 -85 -473 -82 -750 -130 -955 -165 -115 -19
-220 -37 -231 -40 -17 -4 -33 9 -76 63 -30 37 -103 128 -163 202 -60 74 -173
214 -250 310 -78 96 -197 244 -265 329 -69 84 -142 175 -163 202 l-38 49 26
58 c43 95 105 182 139 196 24 10 34 22 43 57 6 24 30 72 52 107 22 34 36 62
30 62 -6 0 -80 -11 -165 -25 -85 -14 -224 -36 -310 -50 -86 -14 -169 -32 -184
-40 -38 -19 -53 -62 -44 -121 9 -64 24 -93 98 -183 34 -42 110 -136 169 -208
59 -73 155 -193 214 -265 59 -73 171 -212 248 -308 78 -96 192 -238 254 -315
62 -77 143 -177 179 -222 102 -127 86 -124 408 -69 263 44 553 94 1024 176
129 22 351 61 493 85 141 25 373 65 515 90 289 50 651 112 1037 179 143 25
366 64 495 86 220 38 344 60 1010 175 143 25 377 65 520 90 143 25 376 65 518
89 558 97 534 91 557 137 38 73 7 118 -133 195 -26 14 -76 43 -112 64 -36 21
-90 53 -120 70 -30 17 -80 46 -110 65 -30 19 -80 48 -110 65 -30 17 -84 49
-120 70 -36 21 -85 51 -110 65 -25 14 -74 44 -110 65 -36 21 -91 52 -122 69
-31 17 -59 35 -63 41 -3 5 -10 10 -15 10 -5 0 13 -46 41 -102z"/>
<path d="M11445 10644 c-105 -55 -135 -93 -135 -172 0 -72 42 -129 144 -196
91 -60 160 -94 256 -126 126 -42 166 -51 320 -71 214 -28 280 -18 333 53 34
46 67 113 67 138 0 30 -46 116 -72 135 -74 53 -164 105 -179 105 -10 0 -47 13
-81 29 -75 35 -194 65 -403 102 -132 23 -210 24 -250 3z"/>
<path d="M9734 9611 c-16 -4 -54 -20 -82 -36 -56 -31 -112 -101 -112 -141 0
-37 22 -74 51 -90 51 -26 88 -16 147 39 30 29 38 32 110 32 90 2 108 8 127 46
46 88 -22 160 -147 158 -35 -1 -77 -4 -94 -8z"/>
<path d="M11531 9066 c-28 -16 -50 -52 -51 -84 0 -19 25 -81 33 -82 1 0 27 -9
57 -19 38 -12 56 -24 58 -37 15 -98 88 -147 161 -109 38 19 54 61 46 121 -16
109 -60 166 -160 203 -64 24 -109 26 -144 7z"/>
<path d="M9748 9024 c-94 -51 -63 -204 42 -204 52 0 110 63 110 119 0 77 -83
123 -152 85z"/>
<path d="M13235 8895 c-14 -13 -25 -36 -25 -50 0 -33 42 -75 75 -75 33 0 75
42 75 75 0 33 -42 75 -75 75 -14 0 -37 -11 -50 -25z"/>
<path d="M12945 8755 c-14 -13 -25 -36 -25 -50 0 -33 42 -75 75 -75 33 0 75
42 75 75 0 33 -42 75 -75 75 -14 0 -37 -11 -50 -25z"/>
<path d="M10284 8696 c-60 -28 -106 -82 -139 -163 -12 -32 -31 -76 -40 -98
-17 -38 -35 -107 -55 -205 -5 -25 -9 -88 -9 -140 -1 -209 65 -330 179 -330
113 0 211 157 265 420 10 47 23 110 31 140 7 30 18 92 25 137 11 72 10 87 -5
126 -17 45 -62 89 -123 120 -43 23 -69 21 -129 -7z"/>
<path d="M11261 8521 c-57 -30 -75 -85 -47 -140 15 -28 53 -51 87 -51 33 0 94
37 107 65 23 51 7 107 -39 131 -37 18 -66 17 -108 -5z"/>
<path d="M13235 8485 c-14 -13 -25 -36 -25 -50 0 -33 42 -75 75 -75 33 0 75
42 75 75 0 33 -42 75 -75 75 -14 0 -37 -11 -50 -25z"/>
<path d="M10555 5245 c-14 -13 -25 -36 -25 -50 0 -38 42 -75 85 -75 43 0 85
37 85 75 0 38 -42 75 -85 75 -25 0 -44 -8 -60 -25z"/>
<path d="M10555 4965 c-14 -13 -25 -36 -25 -50 0 -33 42 -75 75 -75 33 0 75
42 75 75 0 33 -42 75 -75 75 -14 0 -37 -11 -50 -25z"/>
<path d="M11135 4965 c-14 -13 -25 -36 -25 -50 0 -33 42 -75 75 -75 33 0 75
42 75 75 0 33 -42 75 -75 75 -14 0 -37 -11 -50 -25z"/>
<path d="M10218 11944 c-32 -17 -65 -75 -74 -132 -8 -53 23 -125 65 -146 136
-71 293 93 222 232 -11 21 -31 43 -46 50 -36 17 -134 14 -167 -4z"/>
</g>
</svg>
