<?xml version="1.0" standalone="no"?>
<!DOCTYPE svg PUBLIC "-//W3C//DTD SVG 20010904//EN"
 "http://www.w3.org/TR/2001/REC-SVG-20010904/DTD/svg10.dtd">
<svg version="1.0" xmlns="http://www.w3.org/2000/svg"
 width="1500.000000pt" height="1500.000000pt" viewBox="0 0 1500.000000 1500.000000"
 preserveAspectRatio="xMidYMid meet">

<g transform="translate(0.000000,1500.000000) scale(0.100000,-0.100000)"
fill="#000000" stroke="none">
<path d="M1480 14993 c-796 -127 -1383 -735 -1469 -1525 -15 -137 -15 -11789
0 -11926 89 -813 718 -1442 1531 -1531 137 -15 11779 -15 11916 0 813 89 1442
718 1531 1531 15 137 15 11789 0 11926 -65 590 -417 1098 -944 1360 -119 59
-241 104 -385 140 l-105 27 -6025 1 c-3314 1 -6036 0 -6050 -3z m12091 -261
c311 -72 529 -191 745 -406 217 -218 338 -440 407 -750 l22 -101 0 -5965 c0
-5732 -1 -5969 -18 -6055 -64 -312 -191 -550 -411 -771 -218 -217 -440 -338
-750 -407 l-101 -22 -5965 0 -5965 0 -101 22 c-310 69 -532 190 -750 407 -220
221 -347 459 -411 771 -17 86 -18 323 -18 6055 l0 5965 22 101 c65 293 186
522 382 726 239 249 544 405 876 447 40 5 2625 8 6005 7 l5935 -1 96 -23z"/>
<path d="M2590 14143 c-154 -20 -494 -83 -532 -98 -49 -19 -149 -41 -225 -50
-67 -7 -98 -28 -109 -72 -9 -35 3 -222 15 -237 5 -6 15 -32 21 -58 19 -73 48
-98 113 -98 l54 0 8 -52 c4 -29 9 -62 10 -74 2 -11 8 -38 14 -60 5 -21 13 -79
16 -129 3 -49 10 -112 15 -140 5 -27 12 -63 14 -80 3 -16 17 -40 31 -52 23
-20 33 -22 85 -16 67 7 59 18 80 -112 7 -38 16 -80 21 -93 5 -13 9 -43 9 -67
0 -24 7 -79 15 -122 8 -43 15 -97 15 -119 0 -44 -10 -53 -83 -69 -45 -9 -187
-82 -232 -119 -22 -17 -57 -43 -79 -56 -57 -35 -65 -63 -55 -210 5 -69 13
-208 19 -308 5 -101 12 -187 14 -190 2 -4 7 -73 11 -153 5 -114 4 -151 -6
-168 -8 -11 -19 -21 -26 -21 -7 0 -49 -20 -95 -45 -46 -25 -112 -59 -148 -76
-65 -29 -170 -83 -243 -124 -53 -29 -164 -130 -192 -175 -13 -21 -29 -66 -35
-101 -16 -88 -14 -334 4 -416 8 -38 22 -133 31 -213 30 -269 45 -373 54 -384
11 -13 36 -149 61 -326 6 -41 15 -115 20 -165 19 -168 31 -260 45 -345 8 -47
19 -121 25 -165 12 -98 36 -243 50 -310 21 -102 40 -224 55 -345 8 -69 21
-168 29 -220 9 -52 19 -122 25 -155 9 -61 18 -128 47 -375 41 -340 122 -460
374 -552 75 -27 241 -33 510 -18 118 7 312 16 430 20 118 5 285 15 370 24 85
9 187 16 225 16 39 0 97 6 130 14 95 21 228 56 250 66 11 5 54 23 95 39 41 16
113 48 160 71 47 23 141 69 210 101 69 33 145 70 170 84 25 13 68 36 95 51
173 92 242 201 281 445 5 29 2 41 -14 57 -11 11 -23 33 -26 48 -7 30 -8 38
-22 114 -4 25 -8 47 -9 50 -1 3 -5 32 -9 65 -4 33 -11 83 -17 110 -5 28 -13
102 -19 165 -6 63 -12 126 -14 140 -6 36 -33 313 -46 475 -13 153 -62 579 -74
640 -5 28 -24 160 -31 220 -14 123 -16 143 -26 195 -5 30 -14 107 -19 170 -13
156 -19 211 -27 223 -4 6 -10 29 -14 52 -8 48 -42 150 -74 220 -16 36 -70 99
-191 224 -93 96 -182 186 -198 200 -17 14 -55 49 -86 76 -31 28 -78 69 -105
93 -28 24 -80 71 -117 104 -66 59 -198 148 -221 148 -34 1 -46 28 -57 131 -6
57 -18 147 -26 199 -8 52 -19 127 -24 165 -15 119 -41 288 -51 330 -28 123
-51 191 -70 211 -11 12 -48 32 -82 44 -34 11 -88 32 -120 46 -63 26 -97 30
-128 13 -11 -5 -39 -11 -63 -13 l-44 -2 -10 50 c-17 83 -31 168 -38 226 -3 30
-10 73 -14 95 -5 22 -12 77 -16 122 -6 75 -5 83 12 89 98 32 99 33 90 290 l-7
204 53 0 c28 0 95 7 148 14 364 56 434 65 512 70 87 5 88 5 165 -36 165 -85
209 -112 238 -145 17 -18 44 -36 62 -39 28 -6 38 -1 88 47 31 30 63 65 71 79
7 14 34 47 59 74 31 34 45 59 45 77 0 34 -77 128 -171 209 -34 30 -71 63 -81
72 -53 52 -169 114 -234 125 -62 10 -340 -3 -649 -31 -207 -19 -203 -19 -220
14 -8 16 -35 41 -58 55 -37 21 -59 25 -148 29 -57 2 -120 2 -139 -1z m66 -197
c-24 -30 -41 -66 -54 -112 -16 -64 -19 -69 -47 -72 -17 -2 -52 -10 -79 -18
-27 -8 -79 -14 -115 -14 -36 0 -84 -5 -106 -10 -37 -9 -92 -18 -239 -40 -111
-17 -127 -4 -142 118 l-7 52 29 0 c16 0 70 12 119 26 133 37 190 50 290 64 50
7 98 17 108 22 10 5 46 12 80 15 34 2 64 7 66 9 2 2 33 4 69 4 l64 0 -36 -44z
m1144 -21 c25 -8 117 -62 136 -80 84 -78 104 -95 109 -95 11 0 65 -64 65 -77
0 -7 -14 -29 -32 -50 -18 -21 -33 -39 -34 -41 -2 -5 -47 17 -129 64 -44 25
-93 52 -110 60 -16 8 -43 24 -58 37 -27 21 -36 22 -175 19 -81 -2 -167 -8
-192 -13 -25 -6 -63 -12 -85 -15 -22 -2 -62 -9 -88 -14 -27 -6 -77 -13 -110
-16 -34 -3 -80 -9 -102 -14 -59 -14 -127 -11 -149 5 -11 8 -30 15 -42 15 -27
0 -54 39 -54 77 0 41 40 94 81 107 23 7 72 8 154 3 66 -5 149 -6 185 -3 36 4
126 11 200 17 74 6 164 14 200 17 80 9 199 7 230 -3z m-1150 -424 l53 -64 5
-126 c5 -150 8 -146 -127 -166 -48 -7 -164 -25 -260 -39 -96 -14 -175 -25
-177 -23 -2 1 -12 77 -23 167 -12 91 -24 175 -27 186 -5 20 0 22 68 33 40 6
111 20 158 31 47 11 122 28 168 39 46 11 86 22 90 25 10 10 17 4 72 -63z m-31
-693 c7 -46 19 -123 27 -173 20 -117 44 -388 36 -397 -14 -15 -149 -29 -198
-21 l-49 8 -12 85 c-7 47 -14 114 -17 150 -6 80 -37 294 -53 366 -4 19 3 21
104 33 59 8 115 18 123 22 26 14 27 11 39 -73z m420 -509 c28 -6 61 -19 73
-30 l23 -19 -40 -36 c-46 -41 -142 -89 -199 -100 -79 -14 -108 -77 -62 -131
24 -27 24 -27 90 -16 68 12 157 52 230 104 l41 30 8 -28 c4 -15 12 -66 17
-113 9 -82 20 -154 40 -270 6 -31 17 -123 25 -205 l15 -150 -32 -27 c-18 -15
-36 -28 -39 -28 -7 0 -11 29 -39 278 -10 100 -24 190 -29 200 -26 49 -97 52
-128 6 -15 -23 -15 -34 -5 -98 7 -39 15 -112 17 -161 6 -103 32 -281 46 -307
5 -10 9 -20 9 -22 0 -18 -192 -106 -231 -106 -15 0 -39 99 -39 161 0 18 -6 66
-14 108 -8 42 -19 128 -26 191 -6 64 -17 125 -25 137 -29 43 -92 42 -121 -3
-18 -27 -17 -48 17 -314 6 -47 15 -116 20 -155 4 -38 11 -91 15 -117 7 -50 4
-54 -46 -50 -8 1 -55 -3 -105 -9 -49 -6 -120 -7 -156 -4 l-66 7 -11 76 c-12
76 -38 292 -51 424 -9 86 -30 112 -84 105 -57 -8 -68 -28 -63 -117 5 -89 22
-258 36 -355 5 -38 9 -76 10 -83 0 -14 -33 -8 -92 17 -48 20 -55 49 -68 281
-6 96 -14 222 -20 280 -25 287 -25 309 5 281 17 -14 160 -61 189 -61 15 0 37
-5 49 -12 12 -6 57 -13 100 -14 43 -2 82 -6 87 -9 19 -12 96 15 118 40 29 34
28 54 -5 89 -24 26 -30 28 -79 22 -32 -4 -88 0 -138 9 -119 20 -132 24 -209
52 -75 28 -76 23 7 73 21 13 62 29 90 36 28 7 60 16 72 19 17 5 24 -1 39 -35
29 -64 55 -72 215 -72 142 1 194 11 264 53 42 25 56 56 56 129 l0 60 75 0 c40
0 97 -5 124 -11z m396 -1105 c14 -9 25 -13 25 -10 0 25 403 -315 532 -449 31
-33 109 -114 173 -179 101 -104 118 -126 135 -179 11 -33 20 -68 20 -77 0 -9
5 -21 10 -26 12 -12 36 -125 45 -209 3 -33 10 -96 16 -140 5 -44 12 -105 15
-135 3 -30 9 -70 14 -89 5 -19 7 -37 5 -41 -4 -6 8 -103 30 -240 6 -39 27
-193 44 -330 16 -130 21 -178 26 -265 3 -44 12 -152 21 -240 9 -88 17 -178 19
-200 6 -86 35 -359 44 -418 6 -34 12 -80 16 -102 3 -22 13 -83 21 -135 46
-277 46 -296 1 -390 -20 -42 -48 -84 -64 -94 -30 -22 -162 -94 -233 -128 -25
-12 -121 -58 -215 -104 -240 -115 -302 -141 -420 -173 -38 -11 -77 -22 -85
-25 -30 -12 -34 9 -96 474 -14 106 -22 162 -30 200 -2 8 -10 62 -19 120 -8 58
-19 130 -25 160 -6 30 -13 69 -15 85 -3 17 -7 41 -10 54 -11 43 -53 311 -74
471 -12 85 -26 184 -31 220 -6 36 -14 103 -20 150 -12 105 -39 280 -44 289 -3
4 -7 33 -10 66 -4 33 -8 71 -10 85 -10 67 -28 226 -36 324 -10 117 -24 152
-65 162 -36 9 -84 -14 -91 -43 -4 -13 -3 -42 0 -64 4 -23 9 -80 12 -127 3 -48
10 -118 15 -157 5 -38 16 -119 24 -180 8 -60 19 -137 25 -170 7 -33 13 -77 15
-98 3 -21 7 -42 9 -46 3 -4 8 -45 11 -92 4 -46 11 -103 16 -127 5 -24 12 -67
15 -95 6 -58 7 -68 23 -187 6 -47 13 -96 16 -110 2 -14 14 -79 25 -145 11 -66
27 -154 35 -195 19 -96 36 -205 51 -320 3 -19 8 -42 11 -50 2 -8 11 -64 19
-125 16 -116 32 -236 58 -423 9 -62 18 -118 21 -123 4 -5 -19 -9 -52 -9 -32 0
-121 -7 -198 -15 -199 -21 -247 -24 -458 -30 -104 -3 -192 -7 -196 -10 -4 -2
-111 -7 -237 -11 -199 -6 -238 -4 -299 11 -103 25 -202 93 -240 165 -38 71
-71 249 -90 475 -2 28 -9 82 -16 120 -6 39 -12 79 -13 90 -1 11 -6 36 -9 55
-4 19 -9 49 -12 65 -2 17 -9 62 -15 100 -6 39 -13 90 -15 115 -7 76 -24 189
-45 315 -23 135 -49 295 -55 340 -5 38 -16 104 -22 130 -9 42 -23 135 -28 176
-2 24 -9 91 -15 149 -7 58 -13 121 -15 140 -9 89 -35 258 -43 281 -5 13 -10
27 -10 32 0 4 -3 24 -6 45 -4 20 -9 56 -11 80 -11 91 -15 120 -31 187 -8 39
-22 122 -29 185 -7 63 -21 160 -30 215 -18 107 -22 275 -10 365 7 50 12 60 69
115 51 51 88 74 221 140 88 43 171 86 185 95 14 10 62 34 108 54 l83 36 53
-30 c29 -16 86 -39 127 -50 41 -10 96 -26 123 -35 77 -24 323 -24 551 0 17 1
50 10 75 19 25 9 91 32 148 52 56 20 113 45 126 55 13 11 27 19 31 19 6 0 62
43 175 134 62 50 70 53 105 30z"/>
<path d="M2025 10778 c-55 -3 -167 -7 -250 -8 -236 -3 -343 -28 -366 -88 -15
-40 10 -88 51 -97 17 -4 36 -2 43 3 22 18 149 31 337 36 102 3 244 8 315 12
l130 6 56 -38 c54 -37 82 -65 224 -229 33 -38 93 -105 133 -150 40 -44 94
-107 120 -139 26 -33 85 -99 131 -148 74 -77 89 -88 118 -88 39 0 83 37 83 70
0 13 -26 47 -68 88 -37 37 -81 85 -97 107 -37 50 -82 103 -154 180 -31 33 -83
92 -116 130 -120 142 -235 262 -276 291 -24 16 -53 39 -65 51 -21 21 -31 22
-136 20 -62 -1 -158 -5 -213 -9z"/>
<path d="M4110 10058 c-152 -43 -171 -51 -186 -81 -18 -34 -16 -57 16 -177 12
-47 23 -92 25 -100 2 -8 8 -33 14 -55 5 -22 13 -56 16 -75 3 -19 10 -49 16
-66 5 -17 11 -44 13 -61 25 -196 41 -260 68 -274 28 -15 88 -4 140 25 24 13
54 27 68 31 88 26 124 68 95 111 -22 35 -60 35 -142 2 -29 -12 -55 -20 -57
-17 -2 2 -6 20 -9 39 -3 19 -11 69 -17 110 -19 119 -22 110 45 132 98 32 142
91 97 131 -25 22 -63 21 -109 -3 -21 -11 -49 -21 -63 -22 -20 -2 -25 2 -28 22
-1 14 -10 44 -18 67 -8 23 -16 61 -17 84 l-2 42 50 13 c28 8 68 14 91 14 70 0
111 70 62 104 -25 18 -112 20 -168 4z"/>
<path d="M3330 9860 c-35 -37 -39 -64 -23 -159 7 -40 15 -92 18 -115 3 -22 10
-54 15 -71 5 -16 16 -79 24 -140 18 -131 22 -154 41 -208 8 -23 15 -52 15 -64
1 -132 161 -109 316 46 76 75 140 256 129 366 -3 33 -9 76 -14 97 -12 49 -80
160 -103 166 -10 2 -18 8 -18 12 0 13 -118 69 -180 85 -32 8 -88 15 -125 15
-62 0 -69 -2 -95 -30z m191 -105 c76 -27 134 -71 163 -124 35 -65 45 -160 24
-228 -9 -26 -19 -61 -22 -77 -12 -52 -105 -164 -126 -151 -7 4 -15 33 -27 95
-1 8 -11 69 -22 135 -11 66 -29 172 -40 235 -16 89 -18 116 -8 122 6 4 13 8
13 8 1 0 21 -7 45 -15z"/>
<path d="M4191 9024 c-28 -23 -30 -30 -26 -72 2 -26 11 -83 20 -127 16 -85 20
-108 30 -195 11 -94 16 -123 40 -205 12 -44 26 -113 30 -154 8 -82 33 -121 77
-121 60 1 93 45 77 104 -5 16 -11 50 -14 75 -3 25 -12 73 -21 106 -29 115 -34
140 -39 191 -5 53 -13 109 -39 264 -24 139 -23 137 -57 149 -43 15 -43 15 -78
-15z"/>
<path d="M3682 8905 c-92 -40 -138 -114 -149 -241 -6 -69 13 -124 62 -182 40
-47 75 -62 162 -67 102 -6 138 -25 153 -81 26 -91 -18 -236 -72 -242 -31 -4
-70 18 -114 65 -33 35 -61 41 -97 22 -41 -22 -49 -61 -21 -104 36 -56 190
-122 252 -109 15 3 37 7 49 10 52 10 136 127 148 204 13 88 13 155 0 187 -8
18 -14 37 -14 41 0 4 -12 22 -26 40 -36 45 -126 86 -195 88 -30 1 -65 3 -77 3
-26 1 -63 60 -63 101 0 48 20 128 36 141 13 10 25 8 67 -14 62 -32 100 -34
127 -7 33 33 26 65 -22 98 -78 52 -154 70 -206 47z"/>
<path d="M11988 13874 c-87 -28 -353 -172 -489 -265 -108 -74 -290 -246 -397
-374 -41 -49 -120 -130 -176 -180 -55 -49 -163 -151 -240 -225 -213 -208 -279
-251 -387 -253 -70 -2 -102 18 -138 84 -24 45 -62 186 -86 319 -66 360 -112
491 -199 563 -60 50 -110 70 -152 62 -39 -7 -89 -46 -109 -85 -25 -49 -55
-191 -74 -355 -21 -182 -22 -604 -2 -1020 8 -163 8 -252 1 -307 -9 -66 -76
-305 -108 -389 -17 -44 -69 -113 -160 -215 -104 -117 -279 -324 -344 -409 -25
-33 -69 -82 -96 -109 -47 -45 -52 -48 -89 -41 -51 8 -164 -18 -221 -51 -44
-26 -97 -79 -119 -117 -20 -35 -16 -157 8 -233 23 -75 82 -190 133 -257 17
-23 39 -54 48 -68 42 -66 191 -242 261 -308 l77 -74 -6 -62 c-11 -107 25 -296
81 -430 52 -125 195 -388 263 -485 25 -36 75 -108 111 -160 143 -210 222 -295
374 -402 127 -90 220 -138 269 -138 78 0 206 65 245 124 19 30 46 117 41 134
-4 11 27 47 113 132 113 113 287 223 449 284 36 14 96 36 134 51 74 28 180 58
376 106 174 43 188 48 565 196 73 29 499 240 578 286 45 27 700 458 799 526
275 190 473 371 537 490 44 84 46 136 6 216 -36 73 -97 115 -175 123 -28 2
-50 8 -50 12 0 3 11 17 25 30 31 30 117 161 143 221 62 139 89 270 69 334 -24
74 -95 109 -211 103 -50 -2 -72 0 -68 7 4 6 33 45 65 88 32 43 75 112 95 155
34 70 37 84 37 162 -1 103 -24 163 -81 206 -36 28 -43 29 -153 32 -97 3 -133
-1 -221 -22 -57 -13 -106 -24 -107 -23 -1 2 11 23 26 47 16 25 54 94 86 153
59 110 77 187 61 251 -10 39 -73 104 -129 133 -71 36 -175 30 -264 -13 -57
-28 -68 -30 -125 -23 -34 4 -77 5 -97 2 l-36 -5 76 74 c41 40 106 100 143 132
53 46 76 75 99 123 36 78 33 127 -11 182 -80 100 -197 123 -374 74 -10 -2 31
44 92 103 122 119 148 163 136 234 -12 75 -82 162 -145 180 -71 19 -342 3
-424 -26 -22 -8 -42 -12 -44 -10 -2 2 10 19 27 37 52 56 90 141 90 201 0 49
-3 54 -46 94 -25 24 -69 55 -97 69 -70 34 -180 34 -289 -1z m234 -93 c33 -13
88 -68 88 -89 0 -54 -167 -232 -479 -512 -386 -346 -484 -440 -526 -503 -22
-35 -9 -73 30 -83 23 -6 42 10 178 144 84 83 168 164 188 179 19 15 108 96
197 178 90 83 177 155 196 162 18 6 54 26 80 43 107 73 473 137 569 101 29
-11 67 -69 67 -102 0 -31 -168 -196 -306 -300 -138 -104 -233 -182 -417 -344
-88 -77 -192 -168 -231 -202 -81 -69 -176 -178 -176 -200 0 -30 21 -53 48 -53
21 0 46 19 107 81 44 44 123 117 175 162 128 111 158 136 199 175 60 56 168
142 177 142 5 0 36 13 69 29 33 16 116 49 185 72 103 36 138 43 200 44 82 0
116 -14 140 -60 11 -21 11 -30 -5 -64 -9 -22 -36 -54 -59 -73 -22 -18 -81 -71
-131 -118 -91 -87 -164 -150 -290 -252 -261 -212 -341 -283 -359 -318 -8 -17
-13 -30 -11 -30 2 0 25 9 51 20 35 15 54 18 73 12 23 -8 35 -2 101 53 114 93
373 233 416 223 7 -2 -67 -63 -164 -136 -207 -155 -212 -159 -234 -193 -9 -15
-45 -43 -80 -63 -35 -20 -106 -68 -158 -106 -138 -101 -362 -232 -625 -366
-259 -131 -313 -151 -355 -134 l-28 12 1 446 2 447 -24 45 c-40 77 -61 100
-114 127 -44 23 -64 27 -130 26 -67 0 -86 -5 -145 -34 -129 -65 -235 -204
-278 -364 -15 -55 -59 -249 -68 -302 -31 -163 -57 -285 -93 -428 -14 -55 -31
-129 -38 -165 -7 -36 -22 -99 -33 -140 -11 -41 -30 -120 -42 -175 -69 -311
-169 -514 -327 -666 -91 -88 -337 -279 -380 -296 -12 -5 -184 165 -402 396
-156 167 -282 257 -371 268 -43 5 -48 3 -73 -27 -77 -90 10 -296 244 -578 45
-53 98 -114 120 -134 44 -43 46 -49 21 -71 -16 -15 -22 -11 -80 46 -120 119
-293 350 -356 476 -40 79 -70 196 -60 235 22 89 217 151 315 100 50 -25 188
-156 319 -301 173 -191 175 -193 203 -193 31 0 57 24 57 52 0 22 -243 292
-394 435 l-97 93 58 63 c32 35 97 113 145 173 48 60 150 180 226 268 164 187
194 232 237 368 90 281 90 280 88 523 -2 121 -7 283 -13 360 -21 292 -12 578
26 884 11 91 43 205 60 218 25 18 29 17 73 -22 64 -58 96 -146 145 -395 63
-325 99 -445 154 -518 42 -55 114 -86 198 -86 125 0 218 51 389 213 55 53 161
152 235 221 155 143 228 216 279 280 61 75 282 284 351 332 36 24 110 70 165
102 55 31 107 61 115 66 63 40 155 81 225 100 41 11 139 12 167 1z m1016
-1435 c52 -27 65 -51 59 -105 -6 -51 -32 -105 -135 -281 -48 -83 -74 -123
-143 -226 -29 -43 -256 -288 -366 -394 -60 -58 -175 -159 -257 -225 -82 -66
-169 -137 -195 -157 -158 -128 -181 -151 -181 -179 0 -19 8 -34 25 -45 24 -16
27 -15 63 10 20 14 98 76 172 136 74 61 189 154 255 207 66 54 182 161 259
238 140 142 326 350 326 366 0 5 8 9 18 9 10 0 26 6 37 13 85 57 367 106 462
81 56 -15 65 -151 16 -254 -49 -104 -255 -353 -429 -520 -322 -308 -549 -487
-753 -592 -116 -61 -121 -64 -121 -94 0 -32 39 -57 76 -48 73 18 287 152 465
291 89 70 356 310 441 396 45 47 63 58 217 138 62 33 82 39 136 39 76 0 97
-15 89 -63 -35 -213 -109 -341 -315 -544 -96 -94 -139 -130 -364 -306 -117
-92 -337 -244 -428 -297 -90 -51 -103 -65 -93 -103 8 -33 45 -44 89 -26 54 23
365 236 554 381 48 38 94 68 102 68 7 0 30 12 50 28 20 15 45 32 56 39 11 7
52 31 90 55 123 76 153 83 209 53 50 -27 71 -80 53 -134 -17 -46 -86 -138
-159 -207 -91 -87 -377 -295 -633 -460 -66 -43 -208 -136 -315 -207 -376 -248
-967 -516 -1325 -601 -213 -51 -353 -96 -541 -171 -164 -66 -313 -161 -443
-281 -45 -42 -72 -61 -75 -52 -2 7 -12 42 -21 78 -32 125 -114 318 -140 333
-23 12 -62 0 -75 -23 -8 -16 -5 -34 19 -88 51 -116 98 -273 115 -380 16 -99
16 -104 -3 -147 -20 -46 -45 -63 -118 -85 -52 -16 -87 -3 -193 69 -120 82
-142 100 -188 144 -150 145 -457 616 -565 867 -77 178 -106 407 -63 493 27 55
78 86 144 86 60 0 93 -12 196 -73 156 -93 285 -214 356 -337 52 -87 88 -109
124 -73 28 27 18 57 -54 167 -57 86 -89 123 -162 185 -50 42 -114 92 -142 111
-28 18 -55 37 -60 41 -4 5 34 36 85 71 104 70 189 134 294 223 224 190 343
399 425 751 25 108 50 214 56 235 2 8 12 53 23 100 10 47 35 150 54 230 33
136 40 168 52 230 88 454 117 551 197 652 41 53 148 110 212 113 70 4 108 -17
137 -74 l24 -46 0 -453 0 -453 35 -32 c52 -48 109 -64 176 -49 47 10 316 137
529 250 180 96 439 266 590 388 141 113 324 254 385 297 14 9 45 33 70 51 78
60 233 153 280 169 57 20 123 21 158 3z"/>
<path d="M9170 9582 c-23 -11 -43 -33 -59 -66 -24 -47 -24 -51 -14 -145 20
-169 34 -201 277 -616 176 -300 277 -428 462 -581 99 -82 178 -105 208 -62 21
30 21 137 0 186 -9 20 -44 118 -79 217 -111 315 -184 467 -329 687 -41 62
-177 229 -262 321 -56 60 -148 87 -204 59z"/>
<path d="M4497 13530 c-66 -20 -81 -67 -47 -144 45 -101 49 -113 56 -156 l7
-43 -46 32 c-67 45 -99 49 -147 17 -54 -36 -60 -66 -27 -130 15 -28 31 -69 37
-91 5 -22 16 -49 24 -60 9 -11 16 -26 16 -33 0 -7 8 -30 18 -50 29 -58 123
-236 132 -247 4 -5 29 -50 55 -100 26 -49 69 -126 95 -170 25 -44 68 -127 95
-185 27 -58 59 -122 73 -144 13 -21 49 -90 79 -155 31 -64 59 -118 63 -121 3
-3 23 -39 43 -80 40 -81 92 -179 104 -195 12 -15 43 -84 43 -94 0 -5 -12 -6
-27 -2 -29 8 -154 -8 -243 -31 -74 -19 -192 -101 -242 -168 -55 -75 -81 -275
-58 -462 11 -94 18 -113 67 -208 30 -58 79 -136 109 -175 81 -105 260 -274
292 -275 6 0 12 -4 12 -8 0 -9 87 -46 135 -57 102 -25 208 -9 276 40 28 20 52
35 54 33 1 -2 18 -28 37 -58 79 -125 233 -234 368 -261 86 -16 128 -18 220 -7
157 18 326 115 499 288 151 150 210 250 258 435 17 67 19 219 3 260 -14 37
-14 38 23 32 38 -5 140 8 217 30 156 44 364 196 447 326 94 148 142 317 130
461 -20 229 -91 379 -214 452 -41 24 -179 58 -195 48 -11 -7 -10 -1 7 34 60
120 67 390 14 509 -10 23 -19 45 -19 48 0 4 -17 34 -37 67 -29 47 -53 70 -117
112 -45 30 -97 58 -116 64 -19 6 -52 15 -73 22 -52 16 -223 16 -272 0 -33 -10
-119 -45 -185 -74 -44 -19 -123 -80 -190 -146 -41 -39 -167 -195 -173 -213 -6
-19 -73 20 -264 156 -29 20 -56 37 -59 37 -3 0 -19 10 -35 23 -15 12 -45 35
-66 50 -21 16 -65 49 -98 74 -309 232 -342 254 -498 345 -72 42 -137 81 -144
87 -7 6 -14 11 -17 11 -3 0 -36 20 -73 44 -37 24 -78 47 -90 50 -13 4 -23 12
-23 17 0 5 -5 9 -10 9 -6 0 -33 16 -60 35 -27 19 -54 35 -59 35 -5 0 -11 4
-13 8 -5 13 -106 62 -125 61 -10 0 -31 -5 -46 -9z m183 -236 c8 -6 46 -29 84
-49 37 -20 97 -57 133 -81 35 -24 66 -44 68 -44 3 0 34 -18 70 -40 36 -22 67
-40 69 -40 7 0 122 -71 174 -108 54 -38 436 -323 460 -343 7 -6 23 -16 35 -23
30 -16 81 -49 87 -57 9 -11 172 -120 188 -126 10 -3 26 -14 37 -24 51 -47 94
-79 105 -79 6 0 38 -20 71 -45 61 -46 118 -75 149 -75 10 0 32 12 49 26 54 45
34 134 -30 134 -29 0 -101 41 -127 72 -9 11 2 31 50 93 109 141 192 211 308
260 159 68 308 64 425 -10 107 -69 154 -172 160 -349 4 -145 -34 -258 -115
-335 -36 -35 -50 -56 -50 -75 0 -39 15 -61 49 -75 24 -10 34 -10 59 3 37 19
138 26 209 13 55 -9 111 -50 146 -107 42 -69 70 -285 48 -370 -6 -19 -12 -52
-15 -73 -3 -20 -18 -60 -33 -88 -16 -27 -34 -60 -40 -73 -24 -44 -129 -144
-198 -188 -74 -46 -136 -78 -154 -78 -6 0 -31 -7 -57 -16 -27 -9 -79 -16 -118
-16 -58 1 -83 6 -136 31 -93 43 -120 47 -153 21 -43 -34 -38 -82 13 -129 69
-63 93 -127 92 -246 -2 -109 -54 -245 -136 -353 -141 -185 -368 -334 -527
-345 -127 -10 -239 26 -333 104 -60 50 -156 191 -156 229 0 33 -45 99 -76 110
-18 7 -33 6 -53 -5 -32 -16 -41 -33 -41 -75 0 -39 -66 -106 -112 -112 -53 -9
-141 8 -194 36 -45 24 -140 101 -168 135 -6 7 -22 25 -36 40 -53 54 -99 119
-148 204 -42 73 -52 101 -62 170 -11 77 -9 208 5 302 11 77 56 121 175 174 40
18 183 38 210 30 14 -4 50 -15 81 -23 46 -13 59 -22 69 -46 18 -43 59 -80 89
-80 31 0 42 7 63 39 17 24 16 30 -16 106 -30 68 -37 83 -70 140 -19 33 -48 87
-65 120 -61 119 -153 290 -167 312 -23 37 -251 486 -259 512 -4 13 -31 63 -59
110 -29 47 -75 129 -103 181 -28 52 -81 149 -117 215 -36 66 -68 132 -71 147
-4 15 -11 30 -16 33 -5 4 -9 13 -9 22 0 12 3 13 14 4 8 -7 39 -14 68 -17 42
-4 57 -1 73 14 45 41 46 58 7 254 -10 49 -7 51 28 22z"/>
<path d="M4741 12894 c-35 -44 -27 -65 62 -171 46 -54 125 -154 177 -223 51
-69 96 -127 99 -130 4 -3 18 -21 33 -42 15 -20 34 -42 41 -50 7 -7 32 -39 56
-71 38 -53 103 -125 216 -243 22 -23 65 -68 96 -101 127 -135 204 -158 239
-73 15 36 3 67 -35 91 -13 8 -43 33 -67 55 -54 52 -272 282 -292 309 -9 11
-64 82 -123 157 -59 75 -116 147 -125 160 -9 13 -35 48 -57 78 -22 30 -46 62
-54 70 -7 8 -29 35 -48 60 -18 25 -57 69 -85 98 -61 62 -99 69 -133 26z"/>
<path d="M5657 12266 c-40 -37 -36 -77 11 -114 20 -16 51 -37 69 -45 17 -9 37
-23 45 -30 7 -7 38 -30 68 -50 30 -20 89 -64 130 -97 162 -129 270 -156 300
-75 15 41 -9 75 -74 105 -33 15 -97 56 -140 91 -78 63 -242 179 -252 179 -3 0
-20 11 -37 24 -51 38 -88 41 -120 12z"/>
<path d="M12370 7903 c-212 -20 -275 -28 -400 -49 -418 -70 -890 -225 -1295
-424 -601 -296 -1057 -683 -1230 -1047 -102 -214 -102 -440 1 -592 120 -178
325 -284 674 -348 137 -25 600 -25 790 0 684 91 1410 360 1950 720 364 243
634 516 762 772 256 508 -68 897 -802 964 -106 10 -367 12 -450 4z m-476 -283
c78 -30 129 -70 189 -153 85 -114 108 -167 91 -211 -9 -23 -51 -20 -64 4 -6
11 -8 20 -4 20 3 0 -7 21 -22 48 -141 242 -262 285 -499 177 -27 -12 -126 -55
-220 -95 -243 -103 -507 -248 -556 -306 -26 -31 -39 -81 -54 -209 -20 -167
-20 -181 11 -212 24 -24 30 -25 102 -20 42 2 96 13 119 23 l43 19 0 96 c0 126
17 176 80 231 28 25 90 62 147 87 54 25 148 68 208 97 252 120 305 114 416
-48 31 -45 45 -58 65 -58 36 0 86 25 119 60 33 34 60 38 74 12 22 -42 -63
-122 -151 -141 -48 -11 -116 0 -130 21 -4 7 -18 29 -30 48 -11 19 -37 52 -57
73 -59 62 -66 60 -425 -104 -168 -77 -220 -118 -234 -186 -6 -27 -10 -85 -10
-130 1 -97 -3 -103 -85 -144 -46 -24 -76 -31 -140 -35 -107 -7 -159 17 -195
88 l-24 46 16 150 c15 146 35 223 71 278 34 52 398 261 528 304 21 6 78 32
128 56 272 134 376 157 493 114z m-22 -96 c24 -7 31 -34 13 -54 -13 -15 -28
-17 -83 -13 -73 6 -98 22 -82 54 6 10 20 20 32 22 23 5 88 0 120 -9z m1698
-220 c23 -27 -4 -184 -46 -273 -69 -146 -304 -418 -494 -572 -99 -80 -439
-299 -464 -299 -20 0 -38 27 -32 47 3 10 35 36 71 58 125 76 320 206 365 243
205 167 402 388 477 536 32 63 53 144 53 204 0 27 5 53 12 60 17 17 43 15 58
-4z m-2700 -299 c9 -11 9 -22 1 -46 -6 -17 -14 -60 -17 -95 -6 -61 -6 -64 19
-73 31 -12 40 -26 32 -51 -14 -43 -105 -16 -125 36 -12 30 3 158 23 207 17 40
45 49 67 22z m1275 -1025 c0 -22 -13 -32 -100 -75 -133 -66 -271 -116 -513
-184 -152 -43 -387 -92 -542 -113 -131 -18 -819 -18 -912 0 -193 36 -382 121
-487 218 -73 68 -92 103 -71 129 21 26 38 17 105 -54 117 -124 305 -200 570
-231 182 -21 662 -7 865 26 128 20 333 61 400 81 245 69 535 174 597 214 15
10 42 17 58 16 25 -2 30 -6 30 -27z"/>
<path d="M5830 7188 c-30 -11 -73 -24 -95 -28 -99 -19 -267 -69 -285 -85 -21
-19 -28 -89 -10 -100 6 -3 10 -45 10 -93 0 -48 7 -112 15 -142 8 -30 15 -69
15 -86 0 -25 11 -42 54 -83 50 -47 146 -162 146 -175 0 -5 60 -96 70 -106 28
-28 134 -271 156 -355 6 -25 22 -120 20 -121 -118 -57 -146 -64 -166 -39 -7 8
-20 15 -30 15 -10 0 -31 7 -46 15 -16 8 -55 15 -86 15 -53 0 -59 -2 -84 -35
-23 -31 -67 -58 -206 -127 -21 -10 -38 -22 -38 -26 0 -4 -12 -13 -27 -19 -38
-16 -114 -60 -127 -73 -5 -5 -18 -10 -27 -10 -10 0 -28 -13 -41 -29 -22 -25
-32 -29 -94 -32 -53 -3 -77 -10 -98 -27 -16 -12 -37 -22 -47 -22 -11 0 -27 -4
-37 -9 -9 -6 -61 -26 -114 -45 -54 -20 -106 -40 -115 -45 -10 -5 -88 -43 -173
-86 -153 -75 -210 -105 -220 -115 -3 -3 -34 -18 -69 -35 -35 -16 -69 -34 -75
-40 -16 -15 -132 -77 -241 -129 -67 -31 -469 -238 -570 -292 -44 -24 -87 -46
-95 -50 -42 -17 -100 -47 -145 -74 -27 -17 -57 -33 -65 -37 -8 -3 -66 -37
-129 -75 -62 -37 -119 -68 -127 -68 -7 0 -19 -6 -26 -12 -19 -19 -119 -74
-263 -148 -55 -28 -118 -61 -140 -74 -87 -49 -175 -96 -285 -153 -128 -66
-200 -110 -200 -121 0 -4 -26 -20 -57 -37 -61 -31 -133 -96 -133 -118 0 -7 -9
-32 -20 -55 -29 -60 -42 -172 -30 -257 6 -38 15 -97 19 -130 23 -159 54 -298
86 -385 9 -25 21 -61 26 -80 23 -81 28 -97 39 -130 7 -19 18 -48 25 -65 15
-38 33 -88 50 -141 11 -34 38 -85 86 -164 5 -8 20 -35 34 -60 27 -49 31 -55
87 -143 21 -32 38 -61 38 -64 0 -3 13 -25 30 -50 16 -24 30 -46 30 -49 0 -5
115 -165 264 -369 59 -80 129 -161 182 -210 47 -44 103 -95 123 -114 47 -44
215 -153 266 -173 22 -9 72 -26 112 -39 69 -21 76 -22 160 -9 48 8 95 13 104
11 24 -3 89 33 135 75 43 39 244 174 314 211 54 29 94 53 180 108 36 22 97 57
135 76 39 19 72 36 75 39 10 10 136 70 147 70 6 0 13 4 15 8 2 5 28 22 58 40
31 17 67 40 80 52 12 11 26 20 30 20 3 0 15 8 26 18 10 10 35 28 54 42 19 13
131 96 249 185 118 88 225 166 237 173 13 7 24 17 24 23 0 5 7 9 15 9 8 0 15
4 15 8 0 4 37 33 83 62 45 30 95 66 111 80 65 57 148 144 162 171 8 16 18 29
22 29 5 0 21 20 36 45 16 25 33 45 37 45 5 0 9 7 9 16 0 9 6 28 14 42 41 79
83 365 72 495 -4 45 -12 129 -17 187 -16 185 -22 471 -10 534 13 70 30 85 95
86 59 0 173 56 227 113 60 61 73 98 77 218 l4 107 46 17 c53 20 216 102 280
140 45 28 51 23 27 -22 -28 -53 -53 -118 -70 -183 -10 -36 -23 -76 -30 -90
-13 -28 -19 -45 -72 -205 -73 -225 -83 -258 -83 -271 0 -8 -4 -22 -9 -32 -5
-9 -15 -51 -24 -92 -8 -41 -33 -147 -56 -235 -22 -87 -41 -168 -41 -178 0 -11
-7 -25 -15 -31 -9 -7 -16 -30 -17 -58 -1 -51 11 -75 77 -152 89 -104 102 -116
134 -116 58 0 270 74 396 138 39 19 79 40 91 46 28 14 54 76 54 132 0 25 6 57
14 72 7 15 16 60 20 100 11 125 49 305 97 467 17 55 40 132 52 170 11 39 29
81 38 95 9 14 28 48 42 75 14 28 44 76 67 107 l42 57 27 -52 c41 -81 112 -90
156 -20 11 18 24 31 28 30 9 -3 52 -82 80 -147 15 -34 37 -106 44 -143 12 -68
109 -160 211 -201 65 -26 82 -29 204 -30 156 -1 180 2 251 39 76 38 228 186
256 250 12 28 28 61 35 75 8 14 16 51 20 84 5 48 2 74 -20 142 -14 46 -30 84
-35 84 -5 0 -9 5 -9 12 0 6 -17 28 -37 48 -21 21 -51 55 -68 76 -16 22 -71 81
-121 132 -88 90 -91 94 -81 122 18 49 -21 143 -124 297 -25 37 -67 112 -93
165 -26 54 -52 101 -58 104 -5 4 -31 38 -56 78 -25 39 -60 89 -79 112 -18 23
-33 44 -33 48 0 8 -112 154 -146 190 -17 18 -139 169 -154 192 -15 21 -110
131 -141 163 -8 9 -43 50 -78 91 -59 71 -99 117 -216 251 -27 31 -68 78 -90
105 -22 26 -56 64 -75 84 -19 20 -57 63 -85 96 -190 226 -429 393 -580 407
-47 5 -72 1 -115 -15z m130 -143 c39 9 125 -38 254 -137 63 -49 121 -107 194
-193 80 -95 132 -155 302 -343 58 -65 117 -133 131 -152 15 -19 39 -48 55 -65
15 -16 66 -75 112 -130 46 -55 91 -109 100 -120 10 -11 40 -49 67 -85 28 -36
57 -72 65 -81 45 -47 117 -141 201 -263 l76 -110 -98 -48 c-54 -26 -102 -48
-106 -48 -4 -1 -24 -14 -43 -30 -19 -17 -38 -30 -43 -30 -4 0 -36 -19 -70 -42
-68 -47 -79 -53 -212 -123 -49 -26 -97 -53 -106 -61 -19 -17 -29 -18 -29 -2 0
19 -99 105 -174 150 -66 40 -74 42 -160 46 -50 2 -110 -1 -133 -6 -35 -8 -43
-7 -43 4 0 8 -11 32 -25 54 -14 22 -25 42 -25 45 0 15 -111 150 -208 253 -59
63 -107 119 -107 124 0 6 25 24 55 41 30 17 67 42 81 56 15 14 43 40 63 58 48
42 136 171 136 199 0 13 5 26 10 29 33 20 -9 227 -69 341 -31 58 -87 136 -103
142 -4 2 -8 10 -8 17 0 12 -270 297 -387 408 -24 23 -43 44 -43 48 0 4 24 13
53 19 28 6 79 19 112 29 40 12 66 15 78 9 10 -5 31 -7 47 -3z m-135 -416 c74
-71 135 -139 173 -195 12 -19 27 -34 32 -34 11 0 80 -145 103 -216 22 -68 21
-96 -4 -147 -44 -86 -79 -121 -79 -78 0 11 -4 23 -10 26 -5 3 -10 16 -10 29 0
12 -4 26 -9 31 -4 6 -19 42 -32 80 -13 39 -30 81 -39 95 -9 14 -29 50 -45 80
-15 30 -38 69 -51 86 -13 17 -24 34 -24 38 0 8 -37 61 -62 90 -10 11 -18 23
-18 28 0 4 -28 37 -62 74 -57 60 -65 73 -80 137 -27 120 -26 120 65 27 45 -47
114 -115 152 -151z m-108 -995 c41 -24 43 -27 26 -40 -10 -7 -26 -14 -35 -14
-10 0 -18 -4 -18 -9 0 -5 -10 -13 -22 -17 -13 -4 -66 -32 -118 -62 -52 -30
-115 -67 -140 -80 -25 -14 -52 -31 -60 -38 -13 -11 -27 -8 -83 19 -64 31 -82
47 -54 47 8 0 52 23 98 51 114 70 267 150 304 159 48 13 56 11 102 -16z m209
-186 c91 -98 90 -96 68 -113 -22 -17 -214 -115 -225 -115 -5 0 -31 -13 -59
-30 -28 -16 -55 -30 -61 -30 -5 0 -23 -10 -38 -21 -27 -20 -51 -19 -51 0 0 5
-25 35 -55 67 l-56 58 23 18 c32 25 334 188 366 198 43 13 46 12 88 -32z
m-731 -178 c24 -11 57 -34 74 -50 17 -17 37 -30 45 -30 21 0 156 -157 208
-241 59 -97 96 -161 104 -181 3 -10 10 -18 14 -18 4 0 19 -26 34 -57 15 -32
38 -76 51 -98 13 -22 24 -48 25 -58 0 -10 7 -28 15 -40 26 -40 45 -161 39
-245 -7 -88 -21 -115 -67 -137 -17 -9 -43 -22 -57 -30 -14 -8 -44 -15 -68 -15
-45 0 -111 -28 -149 -63 -12 -11 -32 -49 -44 -84 -20 -61 -21 -78 -16 -301 3
-130 8 -253 11 -271 6 -32 5 -34 -9 -15 -8 10 -15 24 -15 29 0 14 -91 191
-122 240 -14 22 -39 65 -55 95 -16 30 -41 74 -56 97 -15 24 -27 45 -27 47 0 8
-82 130 -99 147 -9 9 -27 31 -41 49 -14 18 -39 49 -56 69 -16 20 -40 49 -53
65 -20 27 -125 143 -291 320 -140 149 -185 179 -255 169 -22 -3 -49 -11 -60
-17 -11 -7 -47 -21 -80 -30 -33 -10 -69 -27 -80 -37 -11 -9 -51 -34 -90 -54
-38 -21 -105 -61 -150 -90 -44 -29 -98 -60 -120 -70 -22 -10 -47 -24 -55 -30
-14 -12 -56 -36 -185 -105 -33 -18 -72 -41 -87 -51 -14 -11 -29 -19 -33 -19
-6 0 -98 -43 -125 -59 -8 -5 -35 -19 -60 -31 -102 -52 -379 -229 -472 -302
-46 -36 -78 -87 -78 -123 0 -34 70 -105 220 -222 19 -15 97 -88 173 -163 126
-123 182 -186 244 -274 12 -17 26 -35 30 -41 4 -5 15 -23 23 -40 8 -16 29 -52
46 -80 17 -27 58 -98 90 -158 32 -59 70 -127 84 -150 14 -24 36 -64 49 -88 13
-24 49 -87 80 -139 31 -52 66 -117 78 -145 65 -154 87 -204 106 -245 19 -39
22 -65 23 -193 l2 -148 -27 -12 c-14 -7 -53 -30 -86 -52 -33 -23 -103 -66
-155 -96 -116 -66 -117 -66 -179 -106 l-51 -33 0 81 c0 44 -5 110 -10 147 -6
37 -12 87 -15 112 -18 195 -41 346 -56 365 -4 6 -10 27 -14 48 -4 20 -11 40
-16 43 -5 3 -9 14 -9 26 0 19 -85 208 -98 218 -4 3 -32 55 -62 115 -30 61 -83
152 -117 203 -35 52 -63 96 -63 98 0 11 -247 333 -274 359 -6 6 -26 28 -45 50
-178 210 -452 444 -621 530 -30 15 -73 37 -95 48 -22 11 -44 23 -48 27 -10 9
91 70 213 128 47 23 111 57 144 77 32 19 64 35 72 35 7 0 15 4 19 9 6 10 8 11
155 86 52 26 102 54 110 60 8 7 47 29 85 50 39 21 110 61 158 89 179 103 205
117 347 189 213 108 362 185 390 201 14 8 108 57 210 107 102 51 199 99 215
107 17 9 44 25 60 37 26 20 55 35 115 59 8 3 31 16 50 28 48 29 321 167 395
199 114 50 280 108 349 122 63 12 76 12 134 -5 35 -9 84 -27 107 -38z m925
-50 c0 -4 27 -57 60 -116 45 -81 57 -110 48 -116 -47 -32 -224 -112 -343 -155
-22 -8 -44 -18 -50 -23 -5 -4 -20 -10 -31 -14 -19 -6 -29 6 -77 87 -31 51 -59
100 -62 108 -4 10 48 40 194 112 110 54 210 106 223 116 22 19 38 19 38 1z
m1500 -27 c13 -27 33 -61 43 -76 11 -16 17 -30 15 -32 -2 -3 -37 2 -77 10 -78
17 -88 15 -196 -28 -56 -22 -166 -92 -178 -113 -4 -8 -14 -14 -21 -14 -17 0
-166 -228 -166 -255 0 -12 11 -39 25 -59 14 -20 25 -44 25 -53 0 -9 14 -45 30
-80 17 -34 30 -67 30 -72 0 -19 -20 -22 -26 -4 -6 18 -148 306 -164 333 -33
54 -49 104 -38 117 6 8 57 37 112 64 56 28 103 55 104 60 2 5 8 9 12 9 5 0 29
14 53 30 25 17 48 30 52 30 3 0 21 11 39 25 18 14 37 25 41 25 5 0 16 6 24 14
22 18 217 116 232 116 3 0 16 -21 29 -47z m3 -258 c28 -51 339 -375 360 -375
4 0 7 -6 7 -12 0 -10 -34 -13 -137 -13 -134 0 -140 -1 -204 -31 -74 -35 -141
-93 -197 -169 -20 -27 -41 -53 -46 -57 -19 -13 -155 250 -181 349 -8 29 -16
57 -19 62 -8 12 59 109 103 149 46 43 126 94 171 109 50 17 130 10 143 -12z
m-911 -65 c16 -28 16 -31 -2 -67 -113 -225 -190 -398 -190 -427 0 -9 -37 -96
-81 -192 -10 -23 -19 -46 -19 -53 0 -6 -7 -22 -14 -34 -8 -12 -16 -44 -17 -71
-2 -40 1 -52 20 -67 13 -11 34 -19 48 -19 30 0 73 42 73 72 0 13 23 75 51 138
28 63 57 133 64 155 33 101 75 202 114 275 5 8 21 40 36 72 l27 56 59 -115
c57 -112 69 -148 51 -155 -17 -6 -117 -146 -155 -214 -20 -38 -41 -76 -46 -84
-17 -27 -71 -181 -71 -202 0 -11 -6 -34 -14 -51 -8 -18 -17 -43 -20 -57 -4
-14 -20 -74 -35 -135 -16 -60 -37 -166 -47 -235 -10 -69 -20 -117 -22 -108 -2
10 -20 25 -39 35 -32 15 -39 15 -62 2 -45 -27 -65 -36 -101 -48 -19 -7 -55
-19 -80 -28 -25 -8 -58 -21 -75 -29 -16 -7 -44 -16 -62 -19 l-32 -6 20 68 c28
92 43 150 69 268 12 55 28 123 36 150 8 28 22 75 31 105 8 30 20 66 26 80 5
14 13 39 18 55 12 45 58 175 70 197 5 10 18 52 29 93 10 40 31 100 46 132 14
32 43 96 64 143 45 101 194 349 210 350 3 0 13 -13 22 -30z m-428 -51 c9 -45
7 -119 -2 -119 -5 0 -29 -15 -53 -34 -24 -19 -78 -51 -119 -71 -41 -20 -83
-40 -92 -46 -10 -5 -36 -15 -58 -23 -46 -16 -43 -18 -81 71 l-26 61 96 42
c230 101 302 134 307 142 10 17 22 7 28 -23z m-1823 -392 c15 -21 113 -127
196 -213 51 -52 105 -112 120 -132 29 -39 62 -80 127 -157 43 -51 105 -145
106 -159 0 -5 6 -17 14 -25 20 -23 166 -279 166 -291 0 -5 5 -10 10 -10 6 0
10 -5 10 -12 0 -6 11 -34 24 -62 27 -59 95 -212 106 -241 4 -11 25 -65 45
-120 l37 -100 -13 -75 c-7 -41 -21 -99 -31 -129 -16 -48 -29 -69 -88 -146 -52
-67 -175 -185 -235 -223 -62 -40 -126 -87 -230 -168 -59 -45 -161 -120 -290
-214 -73 -52 -140 -103 -149 -113 -10 -9 -27 -22 -39 -29 -12 -6 -44 -28 -72
-48 -27 -21 -70 -47 -95 -60 -76 -38 -84 -43 -107 -58 l-23 -14 6 73 c5 53 2
95 -11 149 -19 83 -20 87 -63 180 -16 36 -37 85 -47 110 -28 72 -47 111 -87
176 -21 34 -38 66 -38 73 0 6 -4 11 -8 11 -4 0 -13 12 -20 28 -18 42 -75 143
-126 225 -25 40 -46 77 -46 81 0 3 -25 47 -55 97 -30 50 -55 93 -55 97 0 12
-101 165 -143 217 -68 84 -308 323 -375 375 -35 27 -84 68 -109 91 -37 34 -43
43 -32 54 18 17 297 205 305 205 3 0 24 13 47 29 23 15 81 47 129 70 48 22 90
46 93 51 3 6 12 10 19 10 10 0 71 31 136 70 44 26 234 130 293 159 37 19 76
43 86 52 11 10 59 41 108 68 48 28 94 56 102 63 8 6 55 28 105 48 l91 37 50
-46 c28 -25 53 -49 56 -54z m3483 -38 c126 -23 196 -70 196 -133 0 -17 7 -40
15 -50 16 -21 14 -36 -16 -102 -25 -57 -177 -190 -227 -199 -125 -22 -242 -14
-323 23 -50 23 -73 46 -84 82 -4 14 -14 40 -23 59 -14 31 -14 36 4 69 10 19
24 40 29 46 6 6 21 25 33 43 38 54 85 103 99 103 7 0 13 6 13 13 0 25 87 49
194 55 17 1 57 -3 90 -9z m-1510 -1212 c8 -29 6 -41 -5 -52 -16 -16 -181 -81
-254 -100 l-49 -13 -28 31 c-15 18 -28 37 -28 43 0 12 78 44 224 93 49 17 91
33 94 36 15 15 38 -4 46 -38z"/>
<path d="M4190 4168 c-19 -12 -37 -25 -40 -28 -3 -3 -21 -14 -40 -25 -19 -10
-53 -29 -75 -42 -22 -12 -60 -33 -85 -46 -25 -13 -61 -33 -80 -44 -19 -11 -51
-29 -70 -39 -19 -11 -37 -22 -40 -25 -8 -10 -158 -99 -166 -99 -4 0 -17 -9
-28 -19 -22 -20 -72 -52 -116 -73 -41 -20 -70 -57 -70 -88 0 -32 88 -129 200
-220 36 -29 97 -86 135 -127 58 -60 75 -73 101 -73 38 0 84 40 84 72 0 25 -25
68 -40 68 -5 0 -40 30 -77 68 -38 37 -86 81 -108 97 -51 39 -105 91 -105 102
0 4 17 18 38 31 60 36 77 47 82 52 3 3 25 16 50 29 25 14 47 28 50 31 8 11 68
40 82 40 14 0 154 -135 223 -215 99 -115 144 -155 176 -155 28 0 69 47 69 79
0 45 -9 60 -51 82 -22 11 -39 24 -39 29 0 12 -73 93 -176 195 -68 67 -71 71
-50 81 11 6 50 26 86 44 36 18 67 36 70 40 3 4 15 12 26 18 23 12 36 0 119
-113 16 -22 34 -44 40 -50 18 -16 75 -92 75 -100 0 -8 47 -67 81 -102 30 -31
74 -30 104 3 14 15 25 34 25 42 0 8 -27 50 -60 93 -33 42 -60 81 -60 86 0 4
-14 24 -31 43 -17 19 -42 51 -57 70 -14 19 -31 40 -37 45 -6 6 -31 36 -54 69
-78 106 -96 114 -161 74z"/>
<path d="M4670 3317 c-47 -24 -95 -49 -107 -55 -49 -25 -60 -30 -93 -37 -36
-8 -44 -11 -97 -39 -17 -9 -36 -16 -43 -16 -12 0 -55 -19 -205 -90 -55 -26
-110 -50 -121 -54 -29 -9 -49 -57 -37 -91 5 -15 21 -34 36 -43 26 -16 30 -16
70 4 48 24 192 92 222 105 81 35 175 72 201 78 28 8 104 40 175 77 26 13 27
12 22 -9 -3 -12 -11 -35 -18 -52 -7 -16 -17 -67 -20 -112 -10 -112 -3 -119
175 -162 74 -18 152 -38 173 -45 l37 -12 -37 -35 c-21 -19 -66 -53 -100 -76
-34 -23 -72 -51 -85 -62 -12 -12 -92 -56 -177 -98 -307 -151 -361 -189 -361
-252 0 -50 27 -71 87 -71 31 0 48 6 61 20 48 57 108 98 212 145 133 61 256
127 275 150 6 6 39 31 75 55 70 47 91 65 177 149 48 48 55 60 56 97 3 68 -19
82 -218 138 -33 10 -80 23 -105 31 -25 7 -58 16 -73 19 -27 6 -28 9 -22 48 4
22 21 70 38 107 20 41 33 87 35 123 4 52 2 59 -23 82 -41 38 -84 34 -185 -17z"/>
<path d="M7783 4174 c-21 -21 -25 -32 -20 -63 10 -78 74 -107 122 -55 28 30
29 35 15 83 -18 63 -72 80 -117 35z"/>
<path d="M11855 5304 c-33 -2 -188 -8 -345 -14 -541 -21 -896 -59 -1230 -131
-194 -42 -261 -62 -372 -110 -36 -16 -73 -29 -80 -29 -24 0 -139 -86 -174
-130 -63 -80 -65 -107 -20 -345 15 -77 42 -225 61 -330 19 -104 48 -266 65
-360 17 -93 47 -258 66 -365 19 -107 50 -282 69 -388 84 -467 107 -594 125
-697 10 -60 35 -199 55 -307 61 -342 105 -590 122 -683 19 -110 38 -142 130
-227 88 -81 230 -153 383 -197 188 -53 442 -109 575 -126 273 -34 671 -30 910
10 44 8 145 21 225 31 214 24 529 111 635 174 185 111 215 136 256 213 19 37
41 152 184 992 19 110 43 248 53 308 11 59 18 107 16 107 -1 0 -40 -28 -86
-62 -46 -35 -111 -79 -145 -98 l-61 -35 -4 -55 c-3 -30 -15 -81 -27 -113 -19
-49 -29 -61 -59 -74 -21 -8 -44 -19 -52 -24 -123 -71 -374 -133 -769 -189 -80
-12 -148 -23 -153 -26 -4 -3 -42 -9 -83 -13 -63 -7 -84 -6 -125 9 -93 34 -136
77 -165 167 l-17 51 -71 12 c-102 17 -248 55 -326 86 -141 55 -402 205 -511
293 -164 132 -357 339 -492 526 -94 132 -352 568 -457 773 -75 148 -90 202
-67 238 14 21 24 25 54 22 37 -3 43 -10 70 -78 16 -41 130 -271 159 -320 167
-290 310 -521 384 -620 146 -197 406 -445 569 -542 242 -144 340 -187 515
-227 135 -31 147 -31 152 -1 8 51 59 124 104 148 38 21 53 23 108 17 35 -3 87
-1 115 4 28 5 96 15 151 21 55 7 143 21 195 31 52 11 133 27 180 35 97 16 234
49 298 70 23 8 55 14 69 14 38 0 103 -34 157 -81 l46 -41 48 28 c112 65 284
201 317 253 17 26 30 78 50 191 61 362 122 711 215 1245 76 432 76 434 57 471
-33 63 -114 139 -198 185 -96 53 -343 139 -489 170 -300 63 -365 73 -715 114
-199 24 -507 37 -650 29z m635 -153 c524 -66 729 -108 1000 -203 140 -49 201
-83 259 -142 l44 -45 -27 -55 c-46 -94 -117 -137 -356 -218 -259 -87 -445
-119 -960 -164 -152 -14 -312 -18 -720 -18 -531 -1 -651 5 -855 44 -27 6 -113
22 -190 36 -160 30 -493 112 -608 150 -157 52 -307 157 -322 226 -10 45 40
110 95 124 14 4 47 18 73 31 27 13 88 37 135 53 77 25 143 41 392 96 73 16
237 37 415 54 66 6 162 15 214 21 51 5 216 14 365 20 149 5 282 11 296 13 14
2 151 3 305 1 210 -2 321 -8 445 -24z m530 -1167 c19 -3 42 -13 51 -21 20 -17
34 -107 20 -130 -6 -12 -3 -21 12 -33 14 -12 21 -31 23 -57 1 -28 10 -48 29
-67 20 -20 25 -33 21 -52 -4 -13 -1 -34 5 -45 19 -36 2 -64 -84 -141 l-84 -74
-115 -28 -115 -29 10 -27 c17 -46 -8 -71 -95 -98 -42 -13 -113 -30 -158 -38
-46 -8 -100 -19 -121 -24 -20 -6 -164 -31 -318 -55 -302 -48 -315 -48 -327 1
-5 21 -11 24 -28 19 -11 -3 -76 -9 -143 -12 -120 -6 -121 -5 -147 20 -27 27
-32 52 -17 76 6 9 4 23 -6 38 -19 28 -10 68 17 83 18 10 18 11 -6 35 -25 25
-30 50 -14 75 7 11 4 16 -12 20 -12 3 -30 18 -42 33 l-20 27 21 28 c16 21 28
27 57 26 29 -1 36 2 36 17 0 11 -6 19 -14 19 -23 0 -66 40 -66 63 0 30 39 67
70 67 14 0 30 4 35 9 6 6 69 20 140 31 72 12 133 24 138 27 4 2 7 14 7 25 0
40 28 58 90 58 49 0 125 14 266 49 22 6 121 22 220 35 98 14 196 31 216 37 30
10 41 9 59 -3 19 -12 32 -12 83 -2 153 32 219 36 306 18z"/>
<path d="M11280 5094 c-19 -2 -98 -9 -175 -15 -619 -47 -1055 -177 -1055 -314
0 -107 180 -183 635 -269 267 -51 567 -71 1070 -71 594 0 828 20 1250 106 362
74 528 191 423 298 -104 106 -407 186 -918 242 -169 19 -263 22 -695 24 -275
2 -516 1 -535 -1z"/>
<path d="M12821 3773 c-6 -11 -5 -26 1 -42 5 -15 12 -79 15 -143 4 -79 10
-122 19 -129 15 -12 50 -4 57 14 8 23 -10 272 -22 295 -14 26 -56 30 -70 5z"/>
<path d="M12505 3734 c-13 -13 -15 -26 -9 -58 10 -60 17 -111 29 -216 9 -76
21 -87 85 -72 67 16 97 37 122 86 30 58 35 169 11 216 -25 47 -55 60 -145 60
-58 0 -81 -4 -93 -16z m163 -69 c15 -5 16 -100 1 -144 -10 -29 -35 -51 -57
-51 -5 0 -14 40 -21 88 -16 129 -17 124 27 117 20 -4 43 -8 50 -10z"/>
<path d="M12251 3677 c-16 -20 -10 -269 8 -290 21 -26 122 -23 147 4 27 30 8
54 -45 54 l-41 0 0 111 c0 113 -6 134 -41 134 -9 0 -22 -6 -28 -13z"/>
<path d="M11969 3633 c-42 -50 -66 -163 -48 -228 21 -77 100 -120 163 -90 90
43 89 239 -2 303 -42 31 -94 38 -113 15z m101 -153 c10 -76 -15 -115 -55 -86
-17 12 -20 25 -17 82 1 37 7 73 14 81 19 24 50 -18 58 -77z"/>
<path d="M11705 3607 c-50 -28 -81 -74 -96 -143 -11 -49 -10 -62 6 -112 11
-32 34 -72 51 -89 82 -84 221 -3 223 129 1 50 -78 76 -139 45 -53 -27 -31 -82
27 -71 l35 7 -16 -31 c-33 -64 -83 -48 -106 34 -10 36 -10 53 0 87 16 54 35
75 77 83 45 9 60 37 33 64 -26 26 -45 25 -95 -3z"/>
<path d="M12945 2593 c-94 -28 -150 -42 -235 -58 -47 -8 -130 -24 -185 -35
-144 -28 -324 -52 -341 -46 -18 7 -18 -8 0 -24 29 -23 59 -137 54 -207 l-4
-65 30 7 c17 3 68 10 112 15 100 12 220 34 489 90 58 13 111 33 192 73 75 38
83 51 83 135 0 30 -8 44 -50 84 -55 52 -66 55 -145 31z"/>
<path d="M11950 2416 c-6 -8 -10 -25 -8 -38 2 -19 11 -24 46 -29 46 -6 56 -13
66 -45 9 -31 -28 -74 -65 -74 -38 0 -38 -23 1 -61 58 -58 124 -12 122 85 -2
59 -17 94 -60 139 -39 40 -80 49 -102 23z"/>
</g>
</svg>
